M48
; DRILL file {KiCad 5.1.6-1.fc32} date Mon Aug 31 12:31:06 2020
; FORMAT={-:-/ absolute / inch / decimal}
; #@! TF.CreationDate,2020-08-31T12:31:06+02:00
; #@! TF.GenerationSoftware,Kicad,Pcbnew,5.1.6-1.fc32
FMAT,2
INCH
T1C0.0157
T2C0.0315
T3C0.0394
T4C0.1063
%
G90
G05
T1
X2.4961Y-4.9173
X2.5118Y-4.5433
X2.5551Y-3.2835
X2.8504Y-3.7244
X2.8543Y-3.2874
X2.8543Y-3.5433
X2.8819Y-4.9291
X2.9154Y-4.0138
X3.0315Y-3.9173
X3.0512Y-3.4055
X3.1496Y-3.7205
X3.1504Y-4.826
X3.1575Y-4.5433
X3.185Y-4.937
X3.2717Y-2.8228
X3.374Y-3.7913
X3.5433Y-4.937
X3.5512Y-3.3425
X3.5827Y-2.7047
X3.626Y-2.8307
X3.6811Y-3.0472
X3.9134Y-2.8701
X4.0433Y-3.5472
X4.3071Y-3.4331
X4.311Y-3.0866
T2
X3.937Y-4.8327
X4.0157Y-4.8327
T3
X4.1811Y-2.726
X4.1811Y-2.826
X4.1811Y-2.926
X4.1811Y-3.026
X4.1811Y-3.126
X4.1811Y-3.226
X4.1811Y-3.326
X4.1811Y-3.426
X3.4173Y-4.1811
X3.5173Y-4.1811
X3.6173Y-4.1811
X3.7173Y-4.1811
X2.7087Y-4.2756
X2.8087Y-4.2756
X2.9087Y-4.2756
X3.0087Y-4.2756
X2.7079Y-4.1339
X2.8079Y-4.1339
X2.9079Y-4.1339
X3.0079Y-4.1339
X2.7331Y-2.9528
X2.8331Y-2.9528
X2.9331Y-2.9528
X3.0331Y-2.9528
X3.1331Y-2.9528
X3.2331Y-2.9528
X3.3331Y-2.9528
X3.4331Y-2.9528
X2.3228Y-2.7945
X2.3228Y-2.8945
X2.3228Y-2.9945
X2.3228Y-3.0945
X2.3228Y-3.1945
X2.3228Y-3.2945
X2.3228Y-3.3945
X2.3228Y-3.4945
X2.3228Y-3.5945
X2.3228Y-3.6945
X2.3228Y-3.7945
X2.3228Y-3.8945
X2.3228Y-3.9945
X2.3228Y-4.0945
X2.3228Y-4.1945
X2.3228Y-4.2945
X2.3228Y-4.3945
X2.3228Y-4.4945
X2.3228Y-4.5945
X2.3228Y-4.6945
X2.4228Y-2.7945
X2.4228Y-2.8945
X2.4228Y-2.9945
X2.4228Y-3.0945
X2.4228Y-3.1945
X2.4228Y-3.2945
X2.4228Y-3.3945
X2.4228Y-3.4945
X2.4228Y-3.5945
X2.4228Y-3.6945
X2.4228Y-3.7945
X2.4228Y-3.8945
X2.4228Y-3.9945
X2.4228Y-4.0945
X2.4228Y-4.1945
X2.4228Y-4.2945
X2.4228Y-4.3945
X2.4228Y-4.4945
X2.4228Y-4.5945
X2.4228Y-4.6945
X2.9331Y-2.6969
X3.0331Y-2.6969
X3.1331Y-2.6969
X3.2331Y-2.6969
X3.3331Y-2.6969
X3.4331Y-2.6969
T4
X4.252Y-4.8819
T2
G00X4.0157Y-4.5
M15
G01X4.0157Y-4.3976
M16
G05
G00X4.1772Y-4.2598
M15
G01X4.0906Y-4.2598
M16
G05
G00X4.2441Y-4.4921
M15
G01X4.2441Y-4.4055
M16
G05
T0
M30
