%TF.GenerationSoftware,KiCad,Pcbnew,5.1.6-1.fc32*%
%TF.CreationDate,2020-08-31T12:32:43+02:00*%
%TF.ProjectId,pi-lora-board,70692d6c-6f72-4612-9d62-6f6172642e6b,rev?*%
%TF.SameCoordinates,Original*%
%TF.FileFunction,Copper,L2,Bot*%
%TF.FilePolarity,Positive*%
%FSLAX46Y46*%
G04 Gerber Fmt 4.6, Leading zero omitted, Abs format (unit mm)*
G04 Created by KiCad (PCBNEW 5.1.6-1.fc32) date 2020-08-31 12:32:43*
%MOMM*%
%LPD*%
G01*
G04 APERTURE LIST*
%TA.AperFunction,ComponentPad*%
%ADD10O,1.700000X1.700000*%
%TD*%
%TA.AperFunction,ComponentPad*%
%ADD11R,1.700000X1.700000*%
%TD*%
%TA.AperFunction,ComponentPad*%
%ADD12R,1.800000X4.400000*%
%TD*%
%TA.AperFunction,ComponentPad*%
%ADD13O,1.800000X4.000000*%
%TD*%
%TA.AperFunction,ComponentPad*%
%ADD14O,4.000000X1.800000*%
%TD*%
%TA.AperFunction,SMDPad,CuDef*%
%ADD15R,5.000000X3.000000*%
%TD*%
%TA.AperFunction,ComponentPad*%
%ADD16R,1.600000X1.600000*%
%TD*%
%TA.AperFunction,ComponentPad*%
%ADD17C,1.600000*%
%TD*%
%TA.AperFunction,ViaPad*%
%ADD18C,0.800000*%
%TD*%
%TA.AperFunction,Conductor*%
%ADD19C,0.750000*%
%TD*%
%TA.AperFunction,Conductor*%
%ADD20C,0.400000*%
%TD*%
%TA.AperFunction,Conductor*%
%ADD21C,0.250000*%
%TD*%
G04 APERTURE END LIST*
D10*
%TO.P,J9,4*%
%TO.N,GND*%
X76420000Y-108600000D03*
%TO.P,J9,3*%
X73880000Y-108600000D03*
%TO.P,J9,2*%
%TO.N,+5V*%
X71340000Y-108600000D03*
D11*
%TO.P,J9,1*%
X68800000Y-108600000D03*
%TD*%
D10*
%TO.P,J8,8*%
%TO.N,GND*%
X69420000Y-75000000D03*
%TO.P,J8,7*%
X71960000Y-75000000D03*
%TO.P,J8,6*%
%TO.N,Net-(J2-Pad37)*%
X74500000Y-75000000D03*
%TO.P,J8,5*%
%TO.N,Net-(J2-Pad33)*%
X77040000Y-75000000D03*
%TO.P,J8,4*%
%TO.N,Net-(J2-Pad32)*%
X79580000Y-75000000D03*
%TO.P,J8,3*%
%TO.N,Net-(J2-Pad31)*%
X82120000Y-75000000D03*
%TO.P,J8,2*%
%TO.N,Net-(J2-Pad26)*%
X84660000Y-75000000D03*
D11*
%TO.P,J8,1*%
%TO.N,+3V3*%
X87200000Y-75000000D03*
%TD*%
D10*
%TO.P,J7,4*%
%TO.N,GND*%
X68780000Y-105000000D03*
%TO.P,J7,3*%
%TO.N,Net-(J2-Pad10)*%
X71320000Y-105000000D03*
%TO.P,J7,2*%
%TO.N,Net-(J2-Pad8)*%
X73860000Y-105000000D03*
D11*
%TO.P,J7,1*%
%TO.N,+3V3*%
X76400000Y-105000000D03*
%TD*%
D10*
%TO.P,J6,8*%
%TO.N,GND*%
X106200000Y-69240000D03*
%TO.P,J6,7*%
X106200000Y-71780000D03*
%TO.P,J6,6*%
%TO.N,Net-(J2-Pad22)*%
X106200000Y-74320000D03*
%TO.P,J6,5*%
%TO.N,Net-(J2-Pad18)*%
X106200000Y-76860000D03*
%TO.P,J6,4*%
%TO.N,Net-(J2-Pad16)*%
X106200000Y-79400000D03*
%TO.P,J6,3*%
%TO.N,Net-(J2-Pad12)*%
X106200000Y-81940000D03*
%TO.P,J6,2*%
%TO.N,Net-(J2-Pad7)*%
X106200000Y-84480000D03*
D11*
%TO.P,J6,1*%
%TO.N,+3V3*%
X106200000Y-87020000D03*
%TD*%
D10*
%TO.P,J5,6*%
%TO.N,GND*%
X74500000Y-68500000D03*
%TO.P,J5,5*%
%TO.N,Net-(J2-Pad36)*%
X77040000Y-68500000D03*
%TO.P,J5,4*%
%TO.N,Net-(J2-Pad35)*%
X79580000Y-68500000D03*
%TO.P,J5,3*%
%TO.N,Net-(J2-Pad38)*%
X82120000Y-68500000D03*
%TO.P,J5,2*%
%TO.N,Net-(J2-Pad40)*%
X84660000Y-68500000D03*
D11*
%TO.P,J5,1*%
%TO.N,+3V3*%
X87200000Y-68500000D03*
%TD*%
D10*
%TO.P,J4,4*%
%TO.N,GND*%
X86800000Y-106200000D03*
%TO.P,J4,3*%
%TO.N,Net-(J2-Pad5)*%
X89340000Y-106200000D03*
%TO.P,J4,2*%
%TO.N,Net-(J2-Pad3)*%
X91880000Y-106200000D03*
D11*
%TO.P,J4,1*%
%TO.N,+3V3*%
X94420000Y-106200000D03*
%TD*%
D12*
%TO.P,J1,1*%
%TO.N,+VDC*%
X102000000Y-113000000D03*
D13*
%TO.P,J1,2*%
%TO.N,GND*%
X107800000Y-113000000D03*
D14*
%TO.P,J1,3*%
X105000000Y-108200000D03*
%TD*%
D15*
%TO.P,J3,2*%
%TO.N,GND*%
X109000000Y-101750000D03*
X109000000Y-95750000D03*
%TD*%
D16*
%TO.P,C1,1*%
%TO.N,+VDC*%
X100000000Y-122750000D03*
D17*
%TO.P,C1,2*%
%TO.N,GND*%
X102000000Y-122750000D03*
%TD*%
D11*
%TO.P,J2,1*%
%TO.N,Net-(J2-Pad1)*%
X61540000Y-119240000D03*
D10*
%TO.P,J2,2*%
%TO.N,+5V*%
X59000000Y-119240000D03*
%TO.P,J2,3*%
%TO.N,Net-(J2-Pad3)*%
X61540000Y-116700000D03*
%TO.P,J2,4*%
%TO.N,+5V*%
X59000000Y-116700000D03*
%TO.P,J2,5*%
%TO.N,Net-(J2-Pad5)*%
X61540000Y-114160000D03*
%TO.P,J2,6*%
%TO.N,GND*%
X59000000Y-114160000D03*
%TO.P,J2,7*%
%TO.N,Net-(J2-Pad7)*%
X61540000Y-111620000D03*
%TO.P,J2,8*%
%TO.N,Net-(J2-Pad8)*%
X59000000Y-111620000D03*
%TO.P,J2,9*%
%TO.N,GND*%
X61540000Y-109080000D03*
%TO.P,J2,10*%
%TO.N,Net-(J2-Pad10)*%
X59000000Y-109080000D03*
%TO.P,J2,11*%
%TO.N,/LORA_RX_SW*%
X61540000Y-106540000D03*
%TO.P,J2,12*%
%TO.N,Net-(J2-Pad12)*%
X59000000Y-106540000D03*
%TO.P,J2,13*%
%TO.N,/LORA_TX_SW*%
X61540000Y-104000000D03*
%TO.P,J2,14*%
%TO.N,GND*%
X59000000Y-104000000D03*
%TO.P,J2,15*%
%TO.N,/LORA_DIO0*%
X61540000Y-101460000D03*
%TO.P,J2,16*%
%TO.N,Net-(J2-Pad16)*%
X59000000Y-101460000D03*
%TO.P,J2,17*%
%TO.N,Net-(J2-Pad17)*%
X61540000Y-98920000D03*
%TO.P,J2,18*%
%TO.N,Net-(J2-Pad18)*%
X59000000Y-98920000D03*
%TO.P,J2,19*%
%TO.N,/SPI0_MOSI*%
X61540000Y-96380000D03*
%TO.P,J2,20*%
%TO.N,GND*%
X59000000Y-96380000D03*
%TO.P,J2,21*%
%TO.N,/SPI0_MISO*%
X61540000Y-93840000D03*
%TO.P,J2,22*%
%TO.N,Net-(J2-Pad22)*%
X59000000Y-93840000D03*
%TO.P,J2,23*%
%TO.N,/SPI0_SCLK*%
X61540000Y-91300000D03*
%TO.P,J2,24*%
%TO.N,/~SPI0_CE0*%
X59000000Y-91300000D03*
%TO.P,J2,25*%
%TO.N,GND*%
X61540000Y-88760000D03*
%TO.P,J2,26*%
%TO.N,Net-(J2-Pad26)*%
X59000000Y-88760000D03*
%TO.P,J2,27*%
%TO.N,Net-(J2-Pad27)*%
X61540000Y-86220000D03*
%TO.P,J2,28*%
%TO.N,Net-(J2-Pad28)*%
X59000000Y-86220000D03*
%TO.P,J2,29*%
%TO.N,/LORA_RESET*%
X61540000Y-83680000D03*
%TO.P,J2,30*%
%TO.N,GND*%
X59000000Y-83680000D03*
%TO.P,J2,31*%
%TO.N,Net-(J2-Pad31)*%
X61540000Y-81140000D03*
%TO.P,J2,32*%
%TO.N,Net-(J2-Pad32)*%
X59000000Y-81140000D03*
%TO.P,J2,33*%
%TO.N,Net-(J2-Pad33)*%
X61540000Y-78600000D03*
%TO.P,J2,34*%
%TO.N,GND*%
X59000000Y-78600000D03*
%TO.P,J2,35*%
%TO.N,Net-(J2-Pad35)*%
X61540000Y-76060000D03*
%TO.P,J2,36*%
%TO.N,Net-(J2-Pad36)*%
X59000000Y-76060000D03*
%TO.P,J2,37*%
%TO.N,Net-(J2-Pad37)*%
X61540000Y-73520000D03*
%TO.P,J2,38*%
%TO.N,Net-(J2-Pad38)*%
X59000000Y-73520000D03*
%TO.P,J2,39*%
%TO.N,GND*%
X61540000Y-70980000D03*
%TO.P,J2,40*%
%TO.N,Net-(J2-Pad40)*%
X59000000Y-70980000D03*
%TD*%
D18*
%TO.N,+VDC*%
X80020000Y-122580000D03*
%TO.N,GND*%
X85700000Y-96300000D03*
X77000000Y-99500000D03*
X72500000Y-83500000D03*
X72500000Y-90000000D03*
X77500000Y-86500000D03*
X80000000Y-94500000D03*
X80200000Y-115400000D03*
X63800000Y-115400000D03*
X63400000Y-124900000D03*
X83100000Y-71700000D03*
X90200000Y-84900000D03*
X91000000Y-68700000D03*
X92100000Y-71900000D03*
X93500000Y-77400000D03*
X99400000Y-72900000D03*
X109500000Y-78400000D03*
X109400000Y-87200000D03*
X73200000Y-125200000D03*
X80900000Y-125400000D03*
X90000000Y-125400000D03*
X102700000Y-90100000D03*
X72400000Y-94600000D03*
X64900000Y-83400000D03*
%TO.N,Net-(J2-Pad7)*%
X74050000Y-101950000D03*
%TD*%
D19*
%TO.N,+VDC*%
X99830000Y-122580000D02*
X100000000Y-122750000D01*
X80020000Y-122580000D02*
X99830000Y-122580000D01*
D20*
%TO.N,Net-(J2-Pad3)*%
X61540000Y-116700000D02*
X88100000Y-116700000D01*
X91880000Y-112920000D02*
X91880000Y-106200000D01*
X88100000Y-116700000D02*
X91880000Y-112920000D01*
%TO.N,Net-(J2-Pad5)*%
X61540000Y-114160000D02*
X86240000Y-114160000D01*
X89340000Y-111060000D02*
X89340000Y-106200000D01*
X86240000Y-114160000D02*
X89340000Y-111060000D01*
D21*
%TO.N,Net-(J2-Pad7)*%
X74050000Y-101950000D02*
X78050000Y-101950000D01*
X78050000Y-101950000D02*
X87300000Y-92700000D01*
X97980000Y-92700000D02*
X106200000Y-84480000D01*
X87300000Y-92700000D02*
X97980000Y-92700000D01*
%TO.N,Net-(J2-Pad8)*%
X73860000Y-105000000D02*
X71660000Y-107200000D01*
X71660000Y-107200000D02*
X70300000Y-107200000D01*
X70300000Y-107200000D02*
X67950000Y-107200000D01*
X70800000Y-107200000D02*
X71660000Y-107200000D01*
X67686410Y-107200000D02*
X70800000Y-107200000D01*
X66150000Y-108736410D02*
X67686410Y-107200000D01*
X66150000Y-109150000D02*
X66150000Y-108736410D01*
X62400000Y-112900000D02*
X66150000Y-109150000D01*
X60280000Y-112900000D02*
X62400000Y-112900000D01*
X59000000Y-111620000D02*
X60280000Y-112900000D01*
%TO.N,Net-(J2-Pad10)*%
X69570011Y-106749989D02*
X71320000Y-105000000D01*
X67500011Y-106749989D02*
X69570011Y-106749989D01*
X63900000Y-110350000D02*
X67500011Y-106749989D01*
X60270000Y-110350000D02*
X63900000Y-110350000D01*
X59000000Y-109080000D02*
X60270000Y-110350000D01*
%TO.N,Net-(J2-Pad12)*%
X95890010Y-92249990D02*
X106200000Y-81940000D01*
X87113600Y-92249990D02*
X95890010Y-92249990D01*
X81513590Y-97850000D02*
X87113600Y-92249990D01*
X72650000Y-97850000D02*
X81513590Y-97850000D01*
X65250000Y-105250000D02*
X72650000Y-97850000D01*
X60290000Y-105250000D02*
X65250000Y-105250000D01*
X59000000Y-106540000D02*
X60290000Y-105250000D01*
%TO.N,Net-(J2-Pad16)*%
X93800020Y-91799980D02*
X106200000Y-79400000D01*
X86927200Y-91799980D02*
X93800020Y-91799980D01*
X72463600Y-97399990D02*
X81327190Y-97399990D01*
X81327190Y-97399990D02*
X86927200Y-91799980D01*
X69663590Y-100200000D02*
X72463600Y-97399990D01*
X60260000Y-100200000D02*
X69663590Y-100200000D01*
X59000000Y-101460000D02*
X60260000Y-100200000D01*
%TO.N,Net-(J2-Pad26)*%
X72475001Y-87584999D02*
X80730000Y-79330000D01*
X60175001Y-87584999D02*
X72475001Y-87584999D01*
X59000000Y-88760000D02*
X60175001Y-87584999D01*
X80730000Y-79330000D02*
X85060000Y-75000000D01*
%TO.N,Net-(J2-Pad31)*%
X76380000Y-81140000D02*
X82520000Y-75000000D01*
X61540000Y-81140000D02*
X76380000Y-81140000D01*
%TO.N,Net-(J2-Pad32)*%
X75130000Y-79850000D02*
X79980000Y-75000000D01*
X60290000Y-79850000D02*
X75130000Y-79850000D01*
X59000000Y-81140000D02*
X60290000Y-79850000D01*
%TO.N,Net-(J2-Pad33)*%
X73840000Y-78600000D02*
X77440000Y-75000000D01*
X61540000Y-78600000D02*
X73840000Y-78600000D01*
%TO.N,Net-(J2-Pad35)*%
X61540000Y-76060000D02*
X63990000Y-76060000D01*
X63990000Y-76060000D02*
X67800000Y-72250000D01*
X67800000Y-72250000D02*
X77950000Y-72250000D01*
X79580000Y-70620000D02*
X79580000Y-68500000D01*
X77950000Y-72250000D02*
X79580000Y-70620000D01*
%TO.N,Net-(J2-Pad36)*%
X75650010Y-71799990D02*
X77040000Y-70410000D01*
X67613600Y-71799990D02*
X75650010Y-71799990D01*
X64613590Y-74800000D02*
X67613600Y-71799990D01*
X77040000Y-70410000D02*
X77040000Y-68500000D01*
X60260000Y-74800000D02*
X64613590Y-74800000D01*
X59000000Y-76060000D02*
X60260000Y-74800000D01*
%TO.N,Net-(J2-Pad18)*%
X86740800Y-91349970D02*
X91710030Y-91349970D01*
X91710030Y-91349970D02*
X106200000Y-76860000D01*
X72277200Y-96949980D02*
X81140790Y-96949980D01*
X81140790Y-96949980D02*
X86740800Y-91349970D01*
X60270000Y-97650000D02*
X71577180Y-97650000D01*
X71577180Y-97650000D02*
X72277200Y-96949980D01*
X59000000Y-98920000D02*
X60270000Y-97650000D01*
%TO.N,Net-(J2-Pad22)*%
X89620040Y-90899960D02*
X106200000Y-74320000D01*
X86554400Y-90899960D02*
X89620040Y-90899960D01*
X84904360Y-92550000D02*
X86554400Y-90899960D01*
X60290000Y-92550000D02*
X84904360Y-92550000D01*
X59000000Y-93840000D02*
X60290000Y-92550000D01*
%TD*%
D20*
%TO.N,GND*%
G36*
X110796732Y-65203268D02*
G01*
X110800000Y-65219698D01*
X110800000Y-93748309D01*
X109175000Y-93750000D01*
X109050000Y-93875000D01*
X109050000Y-95700000D01*
X109070000Y-95700000D01*
X109070000Y-95800000D01*
X109050000Y-95800000D01*
X109050000Y-97625000D01*
X109175000Y-97750000D01*
X110800000Y-97751691D01*
X110800000Y-99748309D01*
X109175000Y-99750000D01*
X109050000Y-99875000D01*
X109050000Y-101700000D01*
X109070000Y-101700000D01*
X109070000Y-101800000D01*
X109050000Y-101800000D01*
X109050000Y-103625000D01*
X109175000Y-103750000D01*
X110800000Y-103751691D01*
X110800000Y-126780302D01*
X110796732Y-126796732D01*
X110780302Y-126800000D01*
X57219698Y-126800000D01*
X57203268Y-126796732D01*
X57200000Y-126780302D01*
X57200000Y-122491358D01*
X79120000Y-122491358D01*
X79120000Y-122668642D01*
X79154586Y-122842520D01*
X79222430Y-123006310D01*
X79320924Y-123153717D01*
X79446283Y-123279076D01*
X79593690Y-123377570D01*
X79757480Y-123445414D01*
X79931358Y-123480000D01*
X80108642Y-123480000D01*
X80234327Y-123455000D01*
X98697581Y-123455000D01*
X98697581Y-123550000D01*
X98707235Y-123648017D01*
X98735825Y-123742267D01*
X98782254Y-123829129D01*
X98844736Y-123905264D01*
X98920871Y-123967746D01*
X99007733Y-124014175D01*
X99101983Y-124042765D01*
X99200000Y-124052419D01*
X100800000Y-124052419D01*
X100898017Y-124042765D01*
X100992267Y-124014175D01*
X101079129Y-123967746D01*
X101155264Y-123905264D01*
X101217746Y-123829129D01*
X101250499Y-123767853D01*
X101273195Y-123835425D01*
X101498917Y-123956362D01*
X101743894Y-124030938D01*
X101998714Y-124056289D01*
X102253583Y-124031439D01*
X102498707Y-123957345D01*
X102724666Y-123836854D01*
X102726805Y-123835425D01*
X102732727Y-123817791D01*
X106150000Y-123817791D01*
X106150000Y-124182209D01*
X106221095Y-124539625D01*
X106360552Y-124876303D01*
X106563011Y-125179306D01*
X106820694Y-125436989D01*
X107123697Y-125639448D01*
X107460375Y-125778905D01*
X107817791Y-125850000D01*
X108182209Y-125850000D01*
X108539625Y-125778905D01*
X108876303Y-125639448D01*
X109179306Y-125436989D01*
X109436989Y-125179306D01*
X109639448Y-124876303D01*
X109778905Y-124539625D01*
X109850000Y-124182209D01*
X109850000Y-123817791D01*
X109778905Y-123460375D01*
X109639448Y-123123697D01*
X109436989Y-122820694D01*
X109179306Y-122563011D01*
X108876303Y-122360552D01*
X108539625Y-122221095D01*
X108182209Y-122150000D01*
X107817791Y-122150000D01*
X107460375Y-122221095D01*
X107123697Y-122360552D01*
X106820694Y-122563011D01*
X106563011Y-122820694D01*
X106360552Y-123123697D01*
X106221095Y-123460375D01*
X106150000Y-123817791D01*
X102732727Y-123817791D01*
X102799194Y-123619905D01*
X102000000Y-122820711D01*
X101985858Y-122834853D01*
X101915147Y-122764142D01*
X101929289Y-122750000D01*
X102070711Y-122750000D01*
X102869905Y-123549194D01*
X103085425Y-123476805D01*
X103206362Y-123251083D01*
X103280938Y-123006106D01*
X103306289Y-122751286D01*
X103281439Y-122496417D01*
X103207345Y-122251293D01*
X103086854Y-122025334D01*
X103085425Y-122023195D01*
X102869905Y-121950806D01*
X102070711Y-122750000D01*
X101929289Y-122750000D01*
X101915147Y-122735858D01*
X101985858Y-122665147D01*
X102000000Y-122679289D01*
X102799194Y-121880095D01*
X102726805Y-121664575D01*
X102501083Y-121543638D01*
X102256106Y-121469062D01*
X102001286Y-121443711D01*
X101746417Y-121468561D01*
X101501293Y-121542655D01*
X101275334Y-121663146D01*
X101273195Y-121664575D01*
X101250499Y-121732147D01*
X101217746Y-121670871D01*
X101155264Y-121594736D01*
X101079129Y-121532254D01*
X100992267Y-121485825D01*
X100898017Y-121457235D01*
X100800000Y-121447581D01*
X99200000Y-121447581D01*
X99101983Y-121457235D01*
X99007733Y-121485825D01*
X98920871Y-121532254D01*
X98844736Y-121594736D01*
X98782254Y-121670871D01*
X98764012Y-121705000D01*
X80234327Y-121705000D01*
X80108642Y-121680000D01*
X79931358Y-121680000D01*
X79757480Y-121714586D01*
X79593690Y-121782430D01*
X79446283Y-121880924D01*
X79320924Y-122006283D01*
X79222430Y-122153690D01*
X79154586Y-122317480D01*
X79120000Y-122491358D01*
X57200000Y-122491358D01*
X57200000Y-70847037D01*
X57650000Y-70847037D01*
X57650000Y-71112963D01*
X57701880Y-71373780D01*
X57803646Y-71619465D01*
X57951387Y-71840575D01*
X58139425Y-72028613D01*
X58360535Y-72176354D01*
X58538332Y-72250000D01*
X58360535Y-72323646D01*
X58139425Y-72471387D01*
X57951387Y-72659425D01*
X57803646Y-72880535D01*
X57701880Y-73126220D01*
X57650000Y-73387037D01*
X57650000Y-73652963D01*
X57701880Y-73913780D01*
X57803646Y-74159465D01*
X57951387Y-74380575D01*
X58139425Y-74568613D01*
X58360535Y-74716354D01*
X58538332Y-74790000D01*
X58360535Y-74863646D01*
X58139425Y-75011387D01*
X57951387Y-75199425D01*
X57803646Y-75420535D01*
X57701880Y-75666220D01*
X57650000Y-75927037D01*
X57650000Y-76192963D01*
X57701880Y-76453780D01*
X57803646Y-76699465D01*
X57951387Y-76920575D01*
X58139425Y-77108613D01*
X58360535Y-77256354D01*
X58546600Y-77333424D01*
X58486153Y-77351614D01*
X58252478Y-77475848D01*
X58047530Y-77643283D01*
X57879185Y-77847484D01*
X57753913Y-78080604D01*
X57676527Y-78333684D01*
X57675357Y-78339574D01*
X57776021Y-78550000D01*
X58950000Y-78550000D01*
X58950000Y-78530000D01*
X59050000Y-78530000D01*
X59050000Y-78550000D01*
X59070000Y-78550000D01*
X59070000Y-78650000D01*
X59050000Y-78650000D01*
X59050000Y-78670000D01*
X58950000Y-78670000D01*
X58950000Y-78650000D01*
X57776021Y-78650000D01*
X57675357Y-78860426D01*
X57676527Y-78866316D01*
X57753913Y-79119396D01*
X57879185Y-79352516D01*
X58047530Y-79556717D01*
X58252478Y-79724152D01*
X58486153Y-79848386D01*
X58546600Y-79866576D01*
X58360535Y-79943646D01*
X58139425Y-80091387D01*
X57951387Y-80279425D01*
X57803646Y-80500535D01*
X57701880Y-80746220D01*
X57650000Y-81007037D01*
X57650000Y-81272963D01*
X57701880Y-81533780D01*
X57803646Y-81779465D01*
X57951387Y-82000575D01*
X58139425Y-82188613D01*
X58360535Y-82336354D01*
X58546600Y-82413424D01*
X58486153Y-82431614D01*
X58252478Y-82555848D01*
X58047530Y-82723283D01*
X57879185Y-82927484D01*
X57753913Y-83160604D01*
X57676527Y-83413684D01*
X57675357Y-83419574D01*
X57776021Y-83630000D01*
X58950000Y-83630000D01*
X58950000Y-83610000D01*
X59050000Y-83610000D01*
X59050000Y-83630000D01*
X59070000Y-83630000D01*
X59070000Y-83730000D01*
X59050000Y-83730000D01*
X59050000Y-83750000D01*
X58950000Y-83750000D01*
X58950000Y-83730000D01*
X57776021Y-83730000D01*
X57675357Y-83940426D01*
X57676527Y-83946316D01*
X57753913Y-84199396D01*
X57879185Y-84432516D01*
X58047530Y-84636717D01*
X58252478Y-84804152D01*
X58486153Y-84928386D01*
X58546600Y-84946576D01*
X58360535Y-85023646D01*
X58139425Y-85171387D01*
X57951387Y-85359425D01*
X57803646Y-85580535D01*
X57701880Y-85826220D01*
X57650000Y-86087037D01*
X57650000Y-86352963D01*
X57701880Y-86613780D01*
X57803646Y-86859465D01*
X57951387Y-87080575D01*
X58139425Y-87268613D01*
X58360535Y-87416354D01*
X58538332Y-87490000D01*
X58360535Y-87563646D01*
X58139425Y-87711387D01*
X57951387Y-87899425D01*
X57803646Y-88120535D01*
X57701880Y-88366220D01*
X57650000Y-88627037D01*
X57650000Y-88892963D01*
X57701880Y-89153780D01*
X57803646Y-89399465D01*
X57951387Y-89620575D01*
X58139425Y-89808613D01*
X58360535Y-89956354D01*
X58538332Y-90030000D01*
X58360535Y-90103646D01*
X58139425Y-90251387D01*
X57951387Y-90439425D01*
X57803646Y-90660535D01*
X57701880Y-90906220D01*
X57650000Y-91167037D01*
X57650000Y-91432963D01*
X57701880Y-91693780D01*
X57803646Y-91939465D01*
X57951387Y-92160575D01*
X58139425Y-92348613D01*
X58360535Y-92496354D01*
X58538332Y-92570000D01*
X58360535Y-92643646D01*
X58139425Y-92791387D01*
X57951387Y-92979425D01*
X57803646Y-93200535D01*
X57701880Y-93446220D01*
X57650000Y-93707037D01*
X57650000Y-93972963D01*
X57701880Y-94233780D01*
X57803646Y-94479465D01*
X57951387Y-94700575D01*
X58139425Y-94888613D01*
X58360535Y-95036354D01*
X58546600Y-95113424D01*
X58486153Y-95131614D01*
X58252478Y-95255848D01*
X58047530Y-95423283D01*
X57879185Y-95627484D01*
X57753913Y-95860604D01*
X57676527Y-96113684D01*
X57675357Y-96119574D01*
X57776021Y-96330000D01*
X58950000Y-96330000D01*
X58950000Y-96310000D01*
X59050000Y-96310000D01*
X59050000Y-96330000D01*
X59070000Y-96330000D01*
X59070000Y-96430000D01*
X59050000Y-96430000D01*
X59050000Y-96450000D01*
X58950000Y-96450000D01*
X58950000Y-96430000D01*
X57776021Y-96430000D01*
X57675357Y-96640426D01*
X57676527Y-96646316D01*
X57753913Y-96899396D01*
X57879185Y-97132516D01*
X58047530Y-97336717D01*
X58252478Y-97504152D01*
X58486153Y-97628386D01*
X58546600Y-97646576D01*
X58360535Y-97723646D01*
X58139425Y-97871387D01*
X57951387Y-98059425D01*
X57803646Y-98280535D01*
X57701880Y-98526220D01*
X57650000Y-98787037D01*
X57650000Y-99052963D01*
X57701880Y-99313780D01*
X57803646Y-99559465D01*
X57951387Y-99780575D01*
X58139425Y-99968613D01*
X58360535Y-100116354D01*
X58538332Y-100190000D01*
X58360535Y-100263646D01*
X58139425Y-100411387D01*
X57951387Y-100599425D01*
X57803646Y-100820535D01*
X57701880Y-101066220D01*
X57650000Y-101327037D01*
X57650000Y-101592963D01*
X57701880Y-101853780D01*
X57803646Y-102099465D01*
X57951387Y-102320575D01*
X58139425Y-102508613D01*
X58360535Y-102656354D01*
X58546600Y-102733424D01*
X58486153Y-102751614D01*
X58252478Y-102875848D01*
X58047530Y-103043283D01*
X57879185Y-103247484D01*
X57753913Y-103480604D01*
X57676527Y-103733684D01*
X57675357Y-103739574D01*
X57776021Y-103950000D01*
X58950000Y-103950000D01*
X58950000Y-103930000D01*
X59050000Y-103930000D01*
X59050000Y-103950000D01*
X59070000Y-103950000D01*
X59070000Y-104050000D01*
X59050000Y-104050000D01*
X59050000Y-104070000D01*
X58950000Y-104070000D01*
X58950000Y-104050000D01*
X57776021Y-104050000D01*
X57675357Y-104260426D01*
X57676527Y-104266316D01*
X57753913Y-104519396D01*
X57879185Y-104752516D01*
X58047530Y-104956717D01*
X58252478Y-105124152D01*
X58486153Y-105248386D01*
X58546600Y-105266576D01*
X58360535Y-105343646D01*
X58139425Y-105491387D01*
X57951387Y-105679425D01*
X57803646Y-105900535D01*
X57701880Y-106146220D01*
X57650000Y-106407037D01*
X57650000Y-106672963D01*
X57701880Y-106933780D01*
X57803646Y-107179465D01*
X57951387Y-107400575D01*
X58139425Y-107588613D01*
X58360535Y-107736354D01*
X58538332Y-107810000D01*
X58360535Y-107883646D01*
X58139425Y-108031387D01*
X57951387Y-108219425D01*
X57803646Y-108440535D01*
X57701880Y-108686220D01*
X57650000Y-108947037D01*
X57650000Y-109212963D01*
X57701880Y-109473780D01*
X57803646Y-109719465D01*
X57951387Y-109940575D01*
X58139425Y-110128613D01*
X58360535Y-110276354D01*
X58538332Y-110350000D01*
X58360535Y-110423646D01*
X58139425Y-110571387D01*
X57951387Y-110759425D01*
X57803646Y-110980535D01*
X57701880Y-111226220D01*
X57650000Y-111487037D01*
X57650000Y-111752963D01*
X57701880Y-112013780D01*
X57803646Y-112259465D01*
X57951387Y-112480575D01*
X58139425Y-112668613D01*
X58360535Y-112816354D01*
X58546600Y-112893424D01*
X58486153Y-112911614D01*
X58252478Y-113035848D01*
X58047530Y-113203283D01*
X57879185Y-113407484D01*
X57753913Y-113640604D01*
X57676527Y-113893684D01*
X57675357Y-113899574D01*
X57776021Y-114110000D01*
X58950000Y-114110000D01*
X58950000Y-114090000D01*
X59050000Y-114090000D01*
X59050000Y-114110000D01*
X59070000Y-114110000D01*
X59070000Y-114210000D01*
X59050000Y-114210000D01*
X59050000Y-114230000D01*
X58950000Y-114230000D01*
X58950000Y-114210000D01*
X57776021Y-114210000D01*
X57675357Y-114420426D01*
X57676527Y-114426316D01*
X57753913Y-114679396D01*
X57879185Y-114912516D01*
X58047530Y-115116717D01*
X58252478Y-115284152D01*
X58486153Y-115408386D01*
X58546600Y-115426576D01*
X58360535Y-115503646D01*
X58139425Y-115651387D01*
X57951387Y-115839425D01*
X57803646Y-116060535D01*
X57701880Y-116306220D01*
X57650000Y-116567037D01*
X57650000Y-116832963D01*
X57701880Y-117093780D01*
X57803646Y-117339465D01*
X57951387Y-117560575D01*
X58139425Y-117748613D01*
X58360535Y-117896354D01*
X58538332Y-117970000D01*
X58360535Y-118043646D01*
X58139425Y-118191387D01*
X57951387Y-118379425D01*
X57803646Y-118600535D01*
X57701880Y-118846220D01*
X57650000Y-119107037D01*
X57650000Y-119372963D01*
X57701880Y-119633780D01*
X57803646Y-119879465D01*
X57951387Y-120100575D01*
X58139425Y-120288613D01*
X58360535Y-120436354D01*
X58606220Y-120538120D01*
X58867037Y-120590000D01*
X59132963Y-120590000D01*
X59393780Y-120538120D01*
X59639465Y-120436354D01*
X59860575Y-120288613D01*
X60048613Y-120100575D01*
X60187581Y-119892595D01*
X60187581Y-120090000D01*
X60197235Y-120188017D01*
X60225825Y-120282267D01*
X60272254Y-120369129D01*
X60334736Y-120445264D01*
X60410871Y-120507746D01*
X60497733Y-120554175D01*
X60591983Y-120582765D01*
X60690000Y-120592419D01*
X62390000Y-120592419D01*
X62488017Y-120582765D01*
X62582267Y-120554175D01*
X62669129Y-120507746D01*
X62745264Y-120445264D01*
X62807746Y-120369129D01*
X62854175Y-120282267D01*
X62882765Y-120188017D01*
X62892419Y-120090000D01*
X62892419Y-118390000D01*
X62882765Y-118291983D01*
X62854175Y-118197733D01*
X62807746Y-118110871D01*
X62745264Y-118034736D01*
X62669129Y-117972254D01*
X62582267Y-117925825D01*
X62488017Y-117897235D01*
X62390000Y-117887581D01*
X62192595Y-117887581D01*
X62400575Y-117748613D01*
X62588613Y-117560575D01*
X62695906Y-117400000D01*
X88065613Y-117400000D01*
X88100000Y-117403387D01*
X88134387Y-117400000D01*
X88134390Y-117400000D01*
X88237224Y-117389872D01*
X88369175Y-117349845D01*
X88490781Y-117284845D01*
X88597370Y-117197370D01*
X88619296Y-117170653D01*
X92350658Y-113439291D01*
X92377369Y-113417370D01*
X92437518Y-113344079D01*
X92464845Y-113310782D01*
X92529845Y-113189175D01*
X92544661Y-113140334D01*
X92569872Y-113057224D01*
X92580000Y-112954390D01*
X92580000Y-112954388D01*
X92583387Y-112920001D01*
X92580000Y-112885614D01*
X92580000Y-110800000D01*
X100597581Y-110800000D01*
X100597581Y-115200000D01*
X100607235Y-115298017D01*
X100635825Y-115392267D01*
X100682254Y-115479129D01*
X100744736Y-115555264D01*
X100820871Y-115617746D01*
X100907733Y-115664175D01*
X101001983Y-115692765D01*
X101100000Y-115702419D01*
X102900000Y-115702419D01*
X102998017Y-115692765D01*
X103092267Y-115664175D01*
X103179129Y-115617746D01*
X103255264Y-115555264D01*
X103317746Y-115479129D01*
X103364175Y-115392267D01*
X103392765Y-115298017D01*
X103402419Y-115200000D01*
X103402419Y-113050000D01*
X106400000Y-113050000D01*
X106400000Y-114150000D01*
X106436655Y-114422166D01*
X106525703Y-114681951D01*
X106663721Y-114919372D01*
X106845406Y-115125305D01*
X107063775Y-115291836D01*
X107310437Y-115412566D01*
X107531747Y-115474060D01*
X107750000Y-115374019D01*
X107750000Y-113050000D01*
X107850000Y-113050000D01*
X107850000Y-115374019D01*
X108068253Y-115474060D01*
X108289563Y-115412566D01*
X108536225Y-115291836D01*
X108754594Y-115125305D01*
X108936279Y-114919372D01*
X109074297Y-114681951D01*
X109163345Y-114422166D01*
X109200000Y-114150000D01*
X109200000Y-113050000D01*
X107850000Y-113050000D01*
X107750000Y-113050000D01*
X106400000Y-113050000D01*
X103402419Y-113050000D01*
X103402419Y-111850000D01*
X106400000Y-111850000D01*
X106400000Y-112950000D01*
X107750000Y-112950000D01*
X107750000Y-110625981D01*
X107850000Y-110625981D01*
X107850000Y-112950000D01*
X109200000Y-112950000D01*
X109200000Y-111850000D01*
X109163345Y-111577834D01*
X109074297Y-111318049D01*
X108936279Y-111080628D01*
X108754594Y-110874695D01*
X108536225Y-110708164D01*
X108289563Y-110587434D01*
X108068253Y-110525940D01*
X107850000Y-110625981D01*
X107750000Y-110625981D01*
X107531747Y-110525940D01*
X107310437Y-110587434D01*
X107063775Y-110708164D01*
X106845406Y-110874695D01*
X106663721Y-111080628D01*
X106525703Y-111318049D01*
X106436655Y-111577834D01*
X106400000Y-111850000D01*
X103402419Y-111850000D01*
X103402419Y-110800000D01*
X103392765Y-110701983D01*
X103364175Y-110607733D01*
X103317746Y-110520871D01*
X103255264Y-110444736D01*
X103179129Y-110382254D01*
X103092267Y-110335825D01*
X102998017Y-110307235D01*
X102900000Y-110297581D01*
X101100000Y-110297581D01*
X101001983Y-110307235D01*
X100907733Y-110335825D01*
X100820871Y-110382254D01*
X100744736Y-110444736D01*
X100682254Y-110520871D01*
X100635825Y-110607733D01*
X100607235Y-110701983D01*
X100597581Y-110800000D01*
X92580000Y-110800000D01*
X92580000Y-108468253D01*
X102525940Y-108468253D01*
X102587434Y-108689563D01*
X102708164Y-108936225D01*
X102874695Y-109154594D01*
X103080628Y-109336279D01*
X103318049Y-109474297D01*
X103577834Y-109563345D01*
X103850000Y-109600000D01*
X104950000Y-109600000D01*
X104950000Y-108250000D01*
X105050000Y-108250000D01*
X105050000Y-109600000D01*
X106150000Y-109600000D01*
X106422166Y-109563345D01*
X106681951Y-109474297D01*
X106919372Y-109336279D01*
X107125305Y-109154594D01*
X107291836Y-108936225D01*
X107412566Y-108689563D01*
X107474060Y-108468253D01*
X107374019Y-108250000D01*
X105050000Y-108250000D01*
X104950000Y-108250000D01*
X102625981Y-108250000D01*
X102525940Y-108468253D01*
X92580000Y-108468253D01*
X92580000Y-107931747D01*
X102525940Y-107931747D01*
X102625981Y-108150000D01*
X104950000Y-108150000D01*
X104950000Y-106800000D01*
X105050000Y-106800000D01*
X105050000Y-108150000D01*
X107374019Y-108150000D01*
X107474060Y-107931747D01*
X107412566Y-107710437D01*
X107291836Y-107463775D01*
X107125305Y-107245406D01*
X106919372Y-107063721D01*
X106681951Y-106925703D01*
X106422166Y-106836655D01*
X106150000Y-106800000D01*
X105050000Y-106800000D01*
X104950000Y-106800000D01*
X103850000Y-106800000D01*
X103577834Y-106836655D01*
X103318049Y-106925703D01*
X103080628Y-107063721D01*
X102874695Y-107245406D01*
X102708164Y-107463775D01*
X102587434Y-107710437D01*
X102525940Y-107931747D01*
X92580000Y-107931747D01*
X92580000Y-107355906D01*
X92740575Y-107248613D01*
X92928613Y-107060575D01*
X93067581Y-106852595D01*
X93067581Y-107050000D01*
X93077235Y-107148017D01*
X93105825Y-107242267D01*
X93152254Y-107329129D01*
X93214736Y-107405264D01*
X93290871Y-107467746D01*
X93377733Y-107514175D01*
X93471983Y-107542765D01*
X93570000Y-107552419D01*
X95270000Y-107552419D01*
X95368017Y-107542765D01*
X95462267Y-107514175D01*
X95549129Y-107467746D01*
X95625264Y-107405264D01*
X95687746Y-107329129D01*
X95734175Y-107242267D01*
X95762765Y-107148017D01*
X95772419Y-107050000D01*
X95772419Y-105350000D01*
X95762765Y-105251983D01*
X95734175Y-105157733D01*
X95687746Y-105070871D01*
X95625264Y-104994736D01*
X95549129Y-104932254D01*
X95462267Y-104885825D01*
X95368017Y-104857235D01*
X95270000Y-104847581D01*
X93570000Y-104847581D01*
X93471983Y-104857235D01*
X93377733Y-104885825D01*
X93290871Y-104932254D01*
X93214736Y-104994736D01*
X93152254Y-105070871D01*
X93105825Y-105157733D01*
X93077235Y-105251983D01*
X93067581Y-105350000D01*
X93067581Y-105547405D01*
X92928613Y-105339425D01*
X92740575Y-105151387D01*
X92519465Y-105003646D01*
X92273780Y-104901880D01*
X92012963Y-104850000D01*
X91747037Y-104850000D01*
X91486220Y-104901880D01*
X91240535Y-105003646D01*
X91019425Y-105151387D01*
X90831387Y-105339425D01*
X90683646Y-105560535D01*
X90610000Y-105738332D01*
X90536354Y-105560535D01*
X90388613Y-105339425D01*
X90200575Y-105151387D01*
X89979465Y-105003646D01*
X89733780Y-104901880D01*
X89472963Y-104850000D01*
X89207037Y-104850000D01*
X88946220Y-104901880D01*
X88700535Y-105003646D01*
X88479425Y-105151387D01*
X88291387Y-105339425D01*
X88143646Y-105560535D01*
X88066576Y-105746600D01*
X88048386Y-105686153D01*
X87924152Y-105452478D01*
X87756717Y-105247530D01*
X87552516Y-105079185D01*
X87319396Y-104953913D01*
X87066316Y-104876527D01*
X87060426Y-104875357D01*
X86850000Y-104976021D01*
X86850000Y-106150000D01*
X86870000Y-106150000D01*
X86870000Y-106250000D01*
X86850000Y-106250000D01*
X86850000Y-107423979D01*
X87060426Y-107524643D01*
X87066316Y-107523473D01*
X87319396Y-107446087D01*
X87552516Y-107320815D01*
X87756717Y-107152470D01*
X87924152Y-106947522D01*
X88048386Y-106713847D01*
X88066576Y-106653400D01*
X88143646Y-106839465D01*
X88291387Y-107060575D01*
X88479425Y-107248613D01*
X88640001Y-107355906D01*
X88640000Y-110770050D01*
X85950051Y-113460000D01*
X62695906Y-113460000D01*
X62691236Y-113453011D01*
X62748911Y-113422183D01*
X62844080Y-113344080D01*
X62863658Y-113320224D01*
X66570230Y-109613653D01*
X66594080Y-109594080D01*
X66672183Y-109498911D01*
X66730219Y-109390334D01*
X66765957Y-109272521D01*
X66775000Y-109180704D01*
X66775000Y-109180702D01*
X66778024Y-109150000D01*
X66775000Y-109119299D01*
X66775000Y-108995292D01*
X67447581Y-108322712D01*
X67447581Y-109450000D01*
X67457235Y-109548017D01*
X67485825Y-109642267D01*
X67532254Y-109729129D01*
X67594736Y-109805264D01*
X67670871Y-109867746D01*
X67757733Y-109914175D01*
X67851983Y-109942765D01*
X67950000Y-109952419D01*
X69650000Y-109952419D01*
X69748017Y-109942765D01*
X69842267Y-109914175D01*
X69929129Y-109867746D01*
X70005264Y-109805264D01*
X70067746Y-109729129D01*
X70114175Y-109642267D01*
X70142765Y-109548017D01*
X70152419Y-109450000D01*
X70152419Y-109252595D01*
X70291387Y-109460575D01*
X70479425Y-109648613D01*
X70700535Y-109796354D01*
X70946220Y-109898120D01*
X71207037Y-109950000D01*
X71472963Y-109950000D01*
X71733780Y-109898120D01*
X71979465Y-109796354D01*
X72200575Y-109648613D01*
X72388613Y-109460575D01*
X72536354Y-109239465D01*
X72613424Y-109053400D01*
X72631614Y-109113847D01*
X72755848Y-109347522D01*
X72923283Y-109552470D01*
X73127484Y-109720815D01*
X73360604Y-109846087D01*
X73613684Y-109923473D01*
X73619574Y-109924643D01*
X73830000Y-109823979D01*
X73830000Y-108650000D01*
X73930000Y-108650000D01*
X73930000Y-109823979D01*
X74140426Y-109924643D01*
X74146316Y-109923473D01*
X74399396Y-109846087D01*
X74632516Y-109720815D01*
X74836717Y-109552470D01*
X75004152Y-109347522D01*
X75128386Y-109113847D01*
X75150000Y-109042020D01*
X75171614Y-109113847D01*
X75295848Y-109347522D01*
X75463283Y-109552470D01*
X75667484Y-109720815D01*
X75900604Y-109846087D01*
X76153684Y-109923473D01*
X76159574Y-109924643D01*
X76370000Y-109823979D01*
X76370000Y-108650000D01*
X76470000Y-108650000D01*
X76470000Y-109823979D01*
X76680426Y-109924643D01*
X76686316Y-109923473D01*
X76939396Y-109846087D01*
X77172516Y-109720815D01*
X77376717Y-109552470D01*
X77544152Y-109347522D01*
X77668386Y-109113847D01*
X77744645Y-108860426D01*
X77644076Y-108650000D01*
X76470000Y-108650000D01*
X76370000Y-108650000D01*
X75195924Y-108650000D01*
X75150000Y-108746089D01*
X75104076Y-108650000D01*
X73930000Y-108650000D01*
X73830000Y-108650000D01*
X73810000Y-108650000D01*
X73810000Y-108550000D01*
X73830000Y-108550000D01*
X73830000Y-107376021D01*
X73930000Y-107376021D01*
X73930000Y-108550000D01*
X75104076Y-108550000D01*
X75150000Y-108453911D01*
X75195924Y-108550000D01*
X76370000Y-108550000D01*
X76370000Y-107376021D01*
X76470000Y-107376021D01*
X76470000Y-108550000D01*
X77644076Y-108550000D01*
X77744645Y-108339574D01*
X77668386Y-108086153D01*
X77544152Y-107852478D01*
X77376717Y-107647530D01*
X77172516Y-107479185D01*
X76939396Y-107353913D01*
X76686316Y-107276527D01*
X76680426Y-107275357D01*
X76470000Y-107376021D01*
X76370000Y-107376021D01*
X76159574Y-107275357D01*
X76153684Y-107276527D01*
X75900604Y-107353913D01*
X75667484Y-107479185D01*
X75463283Y-107647530D01*
X75295848Y-107852478D01*
X75171614Y-108086153D01*
X75150000Y-108157980D01*
X75128386Y-108086153D01*
X75004152Y-107852478D01*
X74836717Y-107647530D01*
X74632516Y-107479185D01*
X74399396Y-107353913D01*
X74146316Y-107276527D01*
X74140426Y-107275357D01*
X73930000Y-107376021D01*
X73830000Y-107376021D01*
X73619574Y-107275357D01*
X73613684Y-107276527D01*
X73360604Y-107353913D01*
X73127484Y-107479185D01*
X72923283Y-107647530D01*
X72755848Y-107852478D01*
X72631614Y-108086153D01*
X72613424Y-108146600D01*
X72536354Y-107960535D01*
X72388613Y-107739425D01*
X72200575Y-107551387D01*
X72195731Y-107548151D01*
X73283456Y-106460426D01*
X85475355Y-106460426D01*
X85551614Y-106713847D01*
X85675848Y-106947522D01*
X85843283Y-107152470D01*
X86047484Y-107320815D01*
X86280604Y-107446087D01*
X86533684Y-107523473D01*
X86539574Y-107524643D01*
X86750000Y-107423979D01*
X86750000Y-106250000D01*
X85575924Y-106250000D01*
X85475355Y-106460426D01*
X73283456Y-106460426D01*
X73451754Y-106292128D01*
X73466220Y-106298120D01*
X73727037Y-106350000D01*
X73992963Y-106350000D01*
X74253780Y-106298120D01*
X74499465Y-106196354D01*
X74720575Y-106048613D01*
X74908613Y-105860575D01*
X75047581Y-105652595D01*
X75047581Y-105850000D01*
X75057235Y-105948017D01*
X75085825Y-106042267D01*
X75132254Y-106129129D01*
X75194736Y-106205264D01*
X75270871Y-106267746D01*
X75357733Y-106314175D01*
X75451983Y-106342765D01*
X75550000Y-106352419D01*
X77250000Y-106352419D01*
X77348017Y-106342765D01*
X77442267Y-106314175D01*
X77529129Y-106267746D01*
X77605264Y-106205264D01*
X77667746Y-106129129D01*
X77714175Y-106042267D01*
X77742765Y-105948017D01*
X77743596Y-105939574D01*
X85475355Y-105939574D01*
X85575924Y-106150000D01*
X86750000Y-106150000D01*
X86750000Y-104976021D01*
X86539574Y-104875357D01*
X86533684Y-104876527D01*
X86280604Y-104953913D01*
X86047484Y-105079185D01*
X85843283Y-105247530D01*
X85675848Y-105452478D01*
X85551614Y-105686153D01*
X85475355Y-105939574D01*
X77743596Y-105939574D01*
X77752419Y-105850000D01*
X77752419Y-104150000D01*
X77742765Y-104051983D01*
X77714175Y-103957733D01*
X77667746Y-103870871D01*
X77605264Y-103794736D01*
X77529129Y-103732254D01*
X77442267Y-103685825D01*
X77348017Y-103657235D01*
X77250000Y-103647581D01*
X75550000Y-103647581D01*
X75451983Y-103657235D01*
X75357733Y-103685825D01*
X75270871Y-103732254D01*
X75194736Y-103794736D01*
X75132254Y-103870871D01*
X75085825Y-103957733D01*
X75057235Y-104051983D01*
X75047581Y-104150000D01*
X75047581Y-104347405D01*
X74908613Y-104139425D01*
X74720575Y-103951387D01*
X74499465Y-103803646D01*
X74253780Y-103701880D01*
X73992963Y-103650000D01*
X73727037Y-103650000D01*
X73466220Y-103701880D01*
X73220535Y-103803646D01*
X72999425Y-103951387D01*
X72811387Y-104139425D01*
X72663646Y-104360535D01*
X72590000Y-104538332D01*
X72516354Y-104360535D01*
X72368613Y-104139425D01*
X72180575Y-103951387D01*
X71959465Y-103803646D01*
X71713780Y-103701880D01*
X71452963Y-103650000D01*
X71187037Y-103650000D01*
X70926220Y-103701880D01*
X70680535Y-103803646D01*
X70459425Y-103951387D01*
X70271387Y-104139425D01*
X70123646Y-104360535D01*
X70046576Y-104546600D01*
X70028386Y-104486153D01*
X69904152Y-104252478D01*
X69736717Y-104047530D01*
X69532516Y-103879185D01*
X69299396Y-103753913D01*
X69046316Y-103676527D01*
X69040426Y-103675357D01*
X68830000Y-103776021D01*
X68830000Y-104950000D01*
X68850000Y-104950000D01*
X68850000Y-105050000D01*
X68830000Y-105050000D01*
X68830000Y-105070000D01*
X68730000Y-105070000D01*
X68730000Y-105050000D01*
X67555924Y-105050000D01*
X67455355Y-105260426D01*
X67531614Y-105513847D01*
X67655848Y-105747522D01*
X67823283Y-105952470D01*
X68027484Y-106120815D01*
X68035251Y-106124989D01*
X67530704Y-106124989D01*
X67500010Y-106121966D01*
X67469316Y-106124989D01*
X67469307Y-106124989D01*
X67377490Y-106134032D01*
X67259677Y-106169770D01*
X67259675Y-106169771D01*
X67151098Y-106227807D01*
X67079779Y-106286337D01*
X67079776Y-106286340D01*
X67055931Y-106305909D01*
X67036362Y-106329754D01*
X63641118Y-109725000D01*
X62718591Y-109725000D01*
X62786087Y-109599396D01*
X62863473Y-109346316D01*
X62864643Y-109340426D01*
X62763979Y-109130000D01*
X61590000Y-109130000D01*
X61590000Y-109150000D01*
X61490000Y-109150000D01*
X61490000Y-109130000D01*
X61470000Y-109130000D01*
X61470000Y-109030000D01*
X61490000Y-109030000D01*
X61490000Y-109010000D01*
X61590000Y-109010000D01*
X61590000Y-109030000D01*
X62763979Y-109030000D01*
X62864643Y-108819574D01*
X62863473Y-108813684D01*
X62786087Y-108560604D01*
X62660815Y-108327484D01*
X62492470Y-108123283D01*
X62287522Y-107955848D01*
X62053847Y-107831614D01*
X61993400Y-107813424D01*
X62179465Y-107736354D01*
X62400575Y-107588613D01*
X62588613Y-107400575D01*
X62736354Y-107179465D01*
X62838120Y-106933780D01*
X62890000Y-106672963D01*
X62890000Y-106407037D01*
X62838120Y-106146220D01*
X62736354Y-105900535D01*
X62719292Y-105875000D01*
X65219306Y-105875000D01*
X65250000Y-105878023D01*
X65280694Y-105875000D01*
X65280704Y-105875000D01*
X65372521Y-105865957D01*
X65490334Y-105830219D01*
X65598911Y-105772183D01*
X65694080Y-105694080D01*
X65713658Y-105670224D01*
X66644308Y-104739574D01*
X67455355Y-104739574D01*
X67555924Y-104950000D01*
X68730000Y-104950000D01*
X68730000Y-103776021D01*
X68519574Y-103675357D01*
X68513684Y-103676527D01*
X68260604Y-103753913D01*
X68027484Y-103879185D01*
X67823283Y-104047530D01*
X67655848Y-104252478D01*
X67531614Y-104486153D01*
X67455355Y-104739574D01*
X66644308Y-104739574D01*
X68133882Y-103250000D01*
X105997581Y-103250000D01*
X106007235Y-103348017D01*
X106035825Y-103442267D01*
X106082254Y-103529129D01*
X106144736Y-103605264D01*
X106220871Y-103667746D01*
X106307733Y-103714175D01*
X106401983Y-103742765D01*
X106500000Y-103752419D01*
X108825000Y-103750000D01*
X108950000Y-103625000D01*
X108950000Y-101800000D01*
X106125000Y-101800000D01*
X106000000Y-101925000D01*
X105997581Y-103250000D01*
X68133882Y-103250000D01*
X72908883Y-98475000D01*
X80641117Y-98475000D01*
X77791118Y-101325000D01*
X74697793Y-101325000D01*
X74623717Y-101250924D01*
X74476310Y-101152430D01*
X74312520Y-101084586D01*
X74138642Y-101050000D01*
X73961358Y-101050000D01*
X73787480Y-101084586D01*
X73623690Y-101152430D01*
X73476283Y-101250924D01*
X73350924Y-101376283D01*
X73252430Y-101523690D01*
X73184586Y-101687480D01*
X73150000Y-101861358D01*
X73150000Y-102038642D01*
X73184586Y-102212520D01*
X73252430Y-102376310D01*
X73350924Y-102523717D01*
X73476283Y-102649076D01*
X73623690Y-102747570D01*
X73787480Y-102815414D01*
X73961358Y-102850000D01*
X74138642Y-102850000D01*
X74312520Y-102815414D01*
X74476310Y-102747570D01*
X74623717Y-102649076D01*
X74697793Y-102575000D01*
X78019306Y-102575000D01*
X78050000Y-102578023D01*
X78080694Y-102575000D01*
X78080704Y-102575000D01*
X78172521Y-102565957D01*
X78290334Y-102530219D01*
X78398911Y-102472183D01*
X78494080Y-102394080D01*
X78513658Y-102370224D01*
X80633882Y-100250000D01*
X105997581Y-100250000D01*
X106000000Y-101575000D01*
X106125000Y-101700000D01*
X108950000Y-101700000D01*
X108950000Y-99875000D01*
X108825000Y-99750000D01*
X106500000Y-99747581D01*
X106401983Y-99757235D01*
X106307733Y-99785825D01*
X106220871Y-99832254D01*
X106144736Y-99894736D01*
X106082254Y-99970871D01*
X106035825Y-100057733D01*
X106007235Y-100151983D01*
X105997581Y-100250000D01*
X80633882Y-100250000D01*
X83633882Y-97250000D01*
X105997581Y-97250000D01*
X106007235Y-97348017D01*
X106035825Y-97442267D01*
X106082254Y-97529129D01*
X106144736Y-97605264D01*
X106220871Y-97667746D01*
X106307733Y-97714175D01*
X106401983Y-97742765D01*
X106500000Y-97752419D01*
X108825000Y-97750000D01*
X108950000Y-97625000D01*
X108950000Y-95800000D01*
X106125000Y-95800000D01*
X106000000Y-95925000D01*
X105997581Y-97250000D01*
X83633882Y-97250000D01*
X86633883Y-94250000D01*
X105997581Y-94250000D01*
X106000000Y-95575000D01*
X106125000Y-95700000D01*
X108950000Y-95700000D01*
X108950000Y-93875000D01*
X108825000Y-93750000D01*
X106500000Y-93747581D01*
X106401983Y-93757235D01*
X106307733Y-93785825D01*
X106220871Y-93832254D01*
X106144736Y-93894736D01*
X106082254Y-93970871D01*
X106035825Y-94057733D01*
X106007235Y-94151983D01*
X105997581Y-94250000D01*
X86633883Y-94250000D01*
X87558884Y-93325000D01*
X97949306Y-93325000D01*
X97980000Y-93328023D01*
X98010694Y-93325000D01*
X98010704Y-93325000D01*
X98102521Y-93315957D01*
X98220334Y-93280219D01*
X98328911Y-93222183D01*
X98424080Y-93144080D01*
X98443658Y-93120224D01*
X104847581Y-86716303D01*
X104847581Y-87870000D01*
X104857235Y-87968017D01*
X104885825Y-88062267D01*
X104932254Y-88149129D01*
X104994736Y-88225264D01*
X105070871Y-88287746D01*
X105157733Y-88334175D01*
X105251983Y-88362765D01*
X105350000Y-88372419D01*
X107050000Y-88372419D01*
X107148017Y-88362765D01*
X107242267Y-88334175D01*
X107329129Y-88287746D01*
X107405264Y-88225264D01*
X107467746Y-88149129D01*
X107514175Y-88062267D01*
X107542765Y-87968017D01*
X107552419Y-87870000D01*
X107552419Y-86170000D01*
X107542765Y-86071983D01*
X107514175Y-85977733D01*
X107467746Y-85890871D01*
X107405264Y-85814736D01*
X107329129Y-85752254D01*
X107242267Y-85705825D01*
X107148017Y-85677235D01*
X107050000Y-85667581D01*
X106852595Y-85667581D01*
X107060575Y-85528613D01*
X107248613Y-85340575D01*
X107396354Y-85119465D01*
X107498120Y-84873780D01*
X107550000Y-84612963D01*
X107550000Y-84347037D01*
X107498120Y-84086220D01*
X107396354Y-83840535D01*
X107248613Y-83619425D01*
X107060575Y-83431387D01*
X106839465Y-83283646D01*
X106661668Y-83210000D01*
X106839465Y-83136354D01*
X107060575Y-82988613D01*
X107248613Y-82800575D01*
X107396354Y-82579465D01*
X107498120Y-82333780D01*
X107550000Y-82072963D01*
X107550000Y-81807037D01*
X107498120Y-81546220D01*
X107396354Y-81300535D01*
X107248613Y-81079425D01*
X107060575Y-80891387D01*
X106839465Y-80743646D01*
X106661668Y-80670000D01*
X106839465Y-80596354D01*
X107060575Y-80448613D01*
X107248613Y-80260575D01*
X107396354Y-80039465D01*
X107498120Y-79793780D01*
X107550000Y-79532963D01*
X107550000Y-79267037D01*
X107498120Y-79006220D01*
X107396354Y-78760535D01*
X107248613Y-78539425D01*
X107060575Y-78351387D01*
X106839465Y-78203646D01*
X106661668Y-78130000D01*
X106839465Y-78056354D01*
X107060575Y-77908613D01*
X107248613Y-77720575D01*
X107396354Y-77499465D01*
X107498120Y-77253780D01*
X107550000Y-76992963D01*
X107550000Y-76727037D01*
X107498120Y-76466220D01*
X107396354Y-76220535D01*
X107248613Y-75999425D01*
X107060575Y-75811387D01*
X106839465Y-75663646D01*
X106661668Y-75590000D01*
X106839465Y-75516354D01*
X107060575Y-75368613D01*
X107248613Y-75180575D01*
X107396354Y-74959465D01*
X107498120Y-74713780D01*
X107550000Y-74452963D01*
X107550000Y-74187037D01*
X107498120Y-73926220D01*
X107396354Y-73680535D01*
X107248613Y-73459425D01*
X107060575Y-73271387D01*
X106839465Y-73123646D01*
X106653400Y-73046576D01*
X106713847Y-73028386D01*
X106947522Y-72904152D01*
X107152470Y-72736717D01*
X107320815Y-72532516D01*
X107446087Y-72299396D01*
X107523473Y-72046316D01*
X107524643Y-72040426D01*
X107423979Y-71830000D01*
X106250000Y-71830000D01*
X106250000Y-71850000D01*
X106150000Y-71850000D01*
X106150000Y-71830000D01*
X104976021Y-71830000D01*
X104875357Y-72040426D01*
X104876527Y-72046316D01*
X104953913Y-72299396D01*
X105079185Y-72532516D01*
X105247530Y-72736717D01*
X105452478Y-72904152D01*
X105686153Y-73028386D01*
X105746600Y-73046576D01*
X105560535Y-73123646D01*
X105339425Y-73271387D01*
X105151387Y-73459425D01*
X105003646Y-73680535D01*
X104901880Y-73926220D01*
X104850000Y-74187037D01*
X104850000Y-74452963D01*
X104901880Y-74713780D01*
X104907872Y-74728245D01*
X89361158Y-90274960D01*
X86585094Y-90274960D01*
X86554400Y-90271937D01*
X86523706Y-90274960D01*
X86523696Y-90274960D01*
X86431879Y-90284003D01*
X86314066Y-90319741D01*
X86205489Y-90377777D01*
X86110320Y-90455880D01*
X86090747Y-90479730D01*
X84645478Y-91925000D01*
X62742346Y-91925000D01*
X62838120Y-91693780D01*
X62890000Y-91432963D01*
X62890000Y-91167037D01*
X62838120Y-90906220D01*
X62736354Y-90660535D01*
X62588613Y-90439425D01*
X62400575Y-90251387D01*
X62179465Y-90103646D01*
X61993400Y-90026576D01*
X62053847Y-90008386D01*
X62287522Y-89884152D01*
X62492470Y-89716717D01*
X62660815Y-89512516D01*
X62786087Y-89279396D01*
X62863473Y-89026316D01*
X62864643Y-89020426D01*
X62763979Y-88810000D01*
X61590000Y-88810000D01*
X61590000Y-88830000D01*
X61490000Y-88830000D01*
X61490000Y-88810000D01*
X61470000Y-88810000D01*
X61470000Y-88710000D01*
X61490000Y-88710000D01*
X61490000Y-88690000D01*
X61590000Y-88690000D01*
X61590000Y-88710000D01*
X62763979Y-88710000D01*
X62864643Y-88499574D01*
X62863473Y-88493684D01*
X62786087Y-88240604D01*
X62769641Y-88209999D01*
X72444307Y-88209999D01*
X72475001Y-88213022D01*
X72505695Y-88209999D01*
X72505705Y-88209999D01*
X72597522Y-88200956D01*
X72715335Y-88165218D01*
X72823912Y-88107182D01*
X72919081Y-88029079D01*
X72938659Y-88005223D01*
X81193653Y-79750231D01*
X81193662Y-79750220D01*
X84593883Y-76350000D01*
X84792963Y-76350000D01*
X85053780Y-76298120D01*
X85299465Y-76196354D01*
X85520575Y-76048613D01*
X85708613Y-75860575D01*
X85847581Y-75652595D01*
X85847581Y-75850000D01*
X85857235Y-75948017D01*
X85885825Y-76042267D01*
X85932254Y-76129129D01*
X85994736Y-76205264D01*
X86070871Y-76267746D01*
X86157733Y-76314175D01*
X86251983Y-76342765D01*
X86350000Y-76352419D01*
X88050000Y-76352419D01*
X88148017Y-76342765D01*
X88242267Y-76314175D01*
X88329129Y-76267746D01*
X88405264Y-76205264D01*
X88467746Y-76129129D01*
X88514175Y-76042267D01*
X88542765Y-75948017D01*
X88552419Y-75850000D01*
X88552419Y-74150000D01*
X88542765Y-74051983D01*
X88514175Y-73957733D01*
X88467746Y-73870871D01*
X88405264Y-73794736D01*
X88329129Y-73732254D01*
X88242267Y-73685825D01*
X88148017Y-73657235D01*
X88050000Y-73647581D01*
X86350000Y-73647581D01*
X86251983Y-73657235D01*
X86157733Y-73685825D01*
X86070871Y-73732254D01*
X85994736Y-73794736D01*
X85932254Y-73870871D01*
X85885825Y-73957733D01*
X85857235Y-74051983D01*
X85847581Y-74150000D01*
X85847581Y-74347405D01*
X85708613Y-74139425D01*
X85520575Y-73951387D01*
X85299465Y-73803646D01*
X85053780Y-73701880D01*
X84792963Y-73650000D01*
X84527037Y-73650000D01*
X84266220Y-73701880D01*
X84020535Y-73803646D01*
X83799425Y-73951387D01*
X83611387Y-74139425D01*
X83463646Y-74360535D01*
X83390000Y-74538332D01*
X83316354Y-74360535D01*
X83168613Y-74139425D01*
X82980575Y-73951387D01*
X82759465Y-73803646D01*
X82513780Y-73701880D01*
X82252963Y-73650000D01*
X81987037Y-73650000D01*
X81726220Y-73701880D01*
X81480535Y-73803646D01*
X81259425Y-73951387D01*
X81071387Y-74139425D01*
X80923646Y-74360535D01*
X80850000Y-74538332D01*
X80776354Y-74360535D01*
X80628613Y-74139425D01*
X80440575Y-73951387D01*
X80219465Y-73803646D01*
X79973780Y-73701880D01*
X79712963Y-73650000D01*
X79447037Y-73650000D01*
X79186220Y-73701880D01*
X78940535Y-73803646D01*
X78719425Y-73951387D01*
X78531387Y-74139425D01*
X78383646Y-74360535D01*
X78310000Y-74538332D01*
X78236354Y-74360535D01*
X78088613Y-74139425D01*
X77900575Y-73951387D01*
X77679465Y-73803646D01*
X77433780Y-73701880D01*
X77172963Y-73650000D01*
X76907037Y-73650000D01*
X76646220Y-73701880D01*
X76400535Y-73803646D01*
X76179425Y-73951387D01*
X75991387Y-74139425D01*
X75843646Y-74360535D01*
X75770000Y-74538332D01*
X75696354Y-74360535D01*
X75548613Y-74139425D01*
X75360575Y-73951387D01*
X75139465Y-73803646D01*
X74893780Y-73701880D01*
X74632963Y-73650000D01*
X74367037Y-73650000D01*
X74106220Y-73701880D01*
X73860535Y-73803646D01*
X73639425Y-73951387D01*
X73451387Y-74139425D01*
X73303646Y-74360535D01*
X73226576Y-74546600D01*
X73208386Y-74486153D01*
X73084152Y-74252478D01*
X72916717Y-74047530D01*
X72712516Y-73879185D01*
X72479396Y-73753913D01*
X72226316Y-73676527D01*
X72220426Y-73675357D01*
X72010000Y-73776021D01*
X72010000Y-74950000D01*
X72030000Y-74950000D01*
X72030000Y-75050000D01*
X72010000Y-75050000D01*
X72010000Y-76223979D01*
X72220426Y-76324643D01*
X72226316Y-76323473D01*
X72479396Y-76246087D01*
X72712516Y-76120815D01*
X72916717Y-75952470D01*
X73084152Y-75747522D01*
X73208386Y-75513847D01*
X73226576Y-75453400D01*
X73303646Y-75639465D01*
X73451387Y-75860575D01*
X73639425Y-76048613D01*
X73860535Y-76196354D01*
X74106220Y-76298120D01*
X74367037Y-76350000D01*
X74632963Y-76350000D01*
X74893780Y-76298120D01*
X75139465Y-76196354D01*
X75360575Y-76048613D01*
X75548613Y-75860575D01*
X75696354Y-75639465D01*
X75770000Y-75461668D01*
X75843646Y-75639465D01*
X75872888Y-75683229D01*
X73581118Y-77975000D01*
X62742346Y-77975000D01*
X62736354Y-77960535D01*
X62588613Y-77739425D01*
X62400575Y-77551387D01*
X62179465Y-77403646D01*
X62001668Y-77330000D01*
X62179465Y-77256354D01*
X62400575Y-77108613D01*
X62588613Y-76920575D01*
X62736354Y-76699465D01*
X62742346Y-76685000D01*
X63959306Y-76685000D01*
X63990000Y-76688023D01*
X64020694Y-76685000D01*
X64020704Y-76685000D01*
X64112521Y-76675957D01*
X64230334Y-76640219D01*
X64338911Y-76582183D01*
X64434080Y-76504080D01*
X64453658Y-76480224D01*
X65673456Y-75260426D01*
X68095355Y-75260426D01*
X68171614Y-75513847D01*
X68295848Y-75747522D01*
X68463283Y-75952470D01*
X68667484Y-76120815D01*
X68900604Y-76246087D01*
X69153684Y-76323473D01*
X69159574Y-76324643D01*
X69370000Y-76223979D01*
X69370000Y-75050000D01*
X69470000Y-75050000D01*
X69470000Y-76223979D01*
X69680426Y-76324643D01*
X69686316Y-76323473D01*
X69939396Y-76246087D01*
X70172516Y-76120815D01*
X70376717Y-75952470D01*
X70544152Y-75747522D01*
X70668386Y-75513847D01*
X70690000Y-75442020D01*
X70711614Y-75513847D01*
X70835848Y-75747522D01*
X71003283Y-75952470D01*
X71207484Y-76120815D01*
X71440604Y-76246087D01*
X71693684Y-76323473D01*
X71699574Y-76324643D01*
X71910000Y-76223979D01*
X71910000Y-75050000D01*
X70735924Y-75050000D01*
X70690000Y-75146089D01*
X70644076Y-75050000D01*
X69470000Y-75050000D01*
X69370000Y-75050000D01*
X68195924Y-75050000D01*
X68095355Y-75260426D01*
X65673456Y-75260426D01*
X66194308Y-74739574D01*
X68095355Y-74739574D01*
X68195924Y-74950000D01*
X69370000Y-74950000D01*
X69370000Y-73776021D01*
X69470000Y-73776021D01*
X69470000Y-74950000D01*
X70644076Y-74950000D01*
X70690000Y-74853911D01*
X70735924Y-74950000D01*
X71910000Y-74950000D01*
X71910000Y-73776021D01*
X71699574Y-73675357D01*
X71693684Y-73676527D01*
X71440604Y-73753913D01*
X71207484Y-73879185D01*
X71003283Y-74047530D01*
X70835848Y-74252478D01*
X70711614Y-74486153D01*
X70690000Y-74557980D01*
X70668386Y-74486153D01*
X70544152Y-74252478D01*
X70376717Y-74047530D01*
X70172516Y-73879185D01*
X69939396Y-73753913D01*
X69686316Y-73676527D01*
X69680426Y-73675357D01*
X69470000Y-73776021D01*
X69370000Y-73776021D01*
X69159574Y-73675357D01*
X69153684Y-73676527D01*
X68900604Y-73753913D01*
X68667484Y-73879185D01*
X68463283Y-74047530D01*
X68295848Y-74252478D01*
X68171614Y-74486153D01*
X68095355Y-74739574D01*
X66194308Y-74739574D01*
X68058883Y-72875000D01*
X77919306Y-72875000D01*
X77950000Y-72878023D01*
X77980694Y-72875000D01*
X77980704Y-72875000D01*
X78072521Y-72865957D01*
X78190334Y-72830219D01*
X78298911Y-72772183D01*
X78394080Y-72694080D01*
X78413658Y-72670224D01*
X80000230Y-71083653D01*
X80024080Y-71064080D01*
X80084696Y-70990219D01*
X80102182Y-70968913D01*
X80160218Y-70860336D01*
X80162116Y-70854080D01*
X80195957Y-70742521D01*
X80205000Y-70650704D01*
X80205000Y-70650695D01*
X80208023Y-70620001D01*
X80205000Y-70589307D01*
X80205000Y-69702346D01*
X80219465Y-69696354D01*
X80440575Y-69548613D01*
X80628613Y-69360575D01*
X80776354Y-69139465D01*
X80850000Y-68961668D01*
X80923646Y-69139465D01*
X81071387Y-69360575D01*
X81259425Y-69548613D01*
X81480535Y-69696354D01*
X81726220Y-69798120D01*
X81987037Y-69850000D01*
X82252963Y-69850000D01*
X82513780Y-69798120D01*
X82759465Y-69696354D01*
X82980575Y-69548613D01*
X83168613Y-69360575D01*
X83316354Y-69139465D01*
X83390000Y-68961668D01*
X83463646Y-69139465D01*
X83611387Y-69360575D01*
X83799425Y-69548613D01*
X84020535Y-69696354D01*
X84266220Y-69798120D01*
X84527037Y-69850000D01*
X84792963Y-69850000D01*
X85053780Y-69798120D01*
X85299465Y-69696354D01*
X85520575Y-69548613D01*
X85708613Y-69360575D01*
X85847581Y-69152595D01*
X85847581Y-69350000D01*
X85857235Y-69448017D01*
X85885825Y-69542267D01*
X85932254Y-69629129D01*
X85994736Y-69705264D01*
X86070871Y-69767746D01*
X86157733Y-69814175D01*
X86251983Y-69842765D01*
X86350000Y-69852419D01*
X88050000Y-69852419D01*
X88148017Y-69842765D01*
X88242267Y-69814175D01*
X88329129Y-69767746D01*
X88405264Y-69705264D01*
X88467746Y-69629129D01*
X88514175Y-69542267D01*
X88526867Y-69500426D01*
X104875357Y-69500426D01*
X104876527Y-69506316D01*
X104953913Y-69759396D01*
X105079185Y-69992516D01*
X105247530Y-70196717D01*
X105452478Y-70364152D01*
X105686153Y-70488386D01*
X105757980Y-70510000D01*
X105686153Y-70531614D01*
X105452478Y-70655848D01*
X105247530Y-70823283D01*
X105079185Y-71027484D01*
X104953913Y-71260604D01*
X104876527Y-71513684D01*
X104875357Y-71519574D01*
X104976021Y-71730000D01*
X106150000Y-71730000D01*
X106150000Y-70555924D01*
X106053911Y-70510000D01*
X106150000Y-70464076D01*
X106150000Y-69290000D01*
X106250000Y-69290000D01*
X106250000Y-70464076D01*
X106346089Y-70510000D01*
X106250000Y-70555924D01*
X106250000Y-71730000D01*
X107423979Y-71730000D01*
X107524643Y-71519574D01*
X107523473Y-71513684D01*
X107446087Y-71260604D01*
X107320815Y-71027484D01*
X107152470Y-70823283D01*
X106947522Y-70655848D01*
X106713847Y-70531614D01*
X106642020Y-70510000D01*
X106713847Y-70488386D01*
X106947522Y-70364152D01*
X107152470Y-70196717D01*
X107320815Y-69992516D01*
X107446087Y-69759396D01*
X107523473Y-69506316D01*
X107524643Y-69500426D01*
X107423979Y-69290000D01*
X106250000Y-69290000D01*
X106150000Y-69290000D01*
X104976021Y-69290000D01*
X104875357Y-69500426D01*
X88526867Y-69500426D01*
X88542765Y-69448017D01*
X88552419Y-69350000D01*
X88552419Y-68979574D01*
X104875357Y-68979574D01*
X104976021Y-69190000D01*
X106150000Y-69190000D01*
X106150000Y-68015924D01*
X106250000Y-68015924D01*
X106250000Y-69190000D01*
X107423979Y-69190000D01*
X107524643Y-68979574D01*
X107523473Y-68973684D01*
X107446087Y-68720604D01*
X107320815Y-68487484D01*
X107152470Y-68283283D01*
X106947522Y-68115848D01*
X106713847Y-67991614D01*
X106460426Y-67915355D01*
X106250000Y-68015924D01*
X106150000Y-68015924D01*
X105939574Y-67915355D01*
X105686153Y-67991614D01*
X105452478Y-68115848D01*
X105247530Y-68283283D01*
X105079185Y-68487484D01*
X104953913Y-68720604D01*
X104876527Y-68973684D01*
X104875357Y-68979574D01*
X88552419Y-68979574D01*
X88552419Y-67650000D01*
X88542765Y-67551983D01*
X88514175Y-67457733D01*
X88467746Y-67370871D01*
X88405264Y-67294736D01*
X88329129Y-67232254D01*
X88242267Y-67185825D01*
X88148017Y-67157235D01*
X88050000Y-67147581D01*
X86350000Y-67147581D01*
X86251983Y-67157235D01*
X86157733Y-67185825D01*
X86070871Y-67232254D01*
X85994736Y-67294736D01*
X85932254Y-67370871D01*
X85885825Y-67457733D01*
X85857235Y-67551983D01*
X85847581Y-67650000D01*
X85847581Y-67847405D01*
X85708613Y-67639425D01*
X85520575Y-67451387D01*
X85299465Y-67303646D01*
X85053780Y-67201880D01*
X84792963Y-67150000D01*
X84527037Y-67150000D01*
X84266220Y-67201880D01*
X84020535Y-67303646D01*
X83799425Y-67451387D01*
X83611387Y-67639425D01*
X83463646Y-67860535D01*
X83390000Y-68038332D01*
X83316354Y-67860535D01*
X83168613Y-67639425D01*
X82980575Y-67451387D01*
X82759465Y-67303646D01*
X82513780Y-67201880D01*
X82252963Y-67150000D01*
X81987037Y-67150000D01*
X81726220Y-67201880D01*
X81480535Y-67303646D01*
X81259425Y-67451387D01*
X81071387Y-67639425D01*
X80923646Y-67860535D01*
X80850000Y-68038332D01*
X80776354Y-67860535D01*
X80628613Y-67639425D01*
X80440575Y-67451387D01*
X80219465Y-67303646D01*
X79973780Y-67201880D01*
X79712963Y-67150000D01*
X79447037Y-67150000D01*
X79186220Y-67201880D01*
X78940535Y-67303646D01*
X78719425Y-67451387D01*
X78531387Y-67639425D01*
X78383646Y-67860535D01*
X78310000Y-68038332D01*
X78236354Y-67860535D01*
X78088613Y-67639425D01*
X77900575Y-67451387D01*
X77679465Y-67303646D01*
X77433780Y-67201880D01*
X77172963Y-67150000D01*
X76907037Y-67150000D01*
X76646220Y-67201880D01*
X76400535Y-67303646D01*
X76179425Y-67451387D01*
X75991387Y-67639425D01*
X75843646Y-67860535D01*
X75766576Y-68046600D01*
X75748386Y-67986153D01*
X75624152Y-67752478D01*
X75456717Y-67547530D01*
X75252516Y-67379185D01*
X75019396Y-67253913D01*
X74766316Y-67176527D01*
X74760426Y-67175357D01*
X74550000Y-67276021D01*
X74550000Y-68450000D01*
X74570000Y-68450000D01*
X74570000Y-68550000D01*
X74550000Y-68550000D01*
X74550000Y-69723979D01*
X74760426Y-69824643D01*
X74766316Y-69823473D01*
X75019396Y-69746087D01*
X75252516Y-69620815D01*
X75456717Y-69452470D01*
X75624152Y-69247522D01*
X75748386Y-69013847D01*
X75766576Y-68953400D01*
X75843646Y-69139465D01*
X75991387Y-69360575D01*
X76179425Y-69548613D01*
X76400535Y-69696354D01*
X76415000Y-69702346D01*
X76415000Y-70151117D01*
X75391128Y-71174990D01*
X67644301Y-71174990D01*
X67613600Y-71171966D01*
X67582898Y-71174990D01*
X67582896Y-71174990D01*
X67491079Y-71184033D01*
X67373266Y-71219771D01*
X67264689Y-71277807D01*
X67169520Y-71355910D01*
X67149947Y-71379760D01*
X64354708Y-74175000D01*
X62725974Y-74175000D01*
X62736354Y-74159465D01*
X62838120Y-73913780D01*
X62890000Y-73652963D01*
X62890000Y-73387037D01*
X62838120Y-73126220D01*
X62736354Y-72880535D01*
X62588613Y-72659425D01*
X62400575Y-72471387D01*
X62179465Y-72323646D01*
X61993400Y-72246576D01*
X62053847Y-72228386D01*
X62287522Y-72104152D01*
X62492470Y-71936717D01*
X62660815Y-71732516D01*
X62786087Y-71499396D01*
X62863473Y-71246316D01*
X62864643Y-71240426D01*
X62763979Y-71030000D01*
X61590000Y-71030000D01*
X61590000Y-71050000D01*
X61490000Y-71050000D01*
X61490000Y-71030000D01*
X61470000Y-71030000D01*
X61470000Y-70930000D01*
X61490000Y-70930000D01*
X61490000Y-69755924D01*
X61590000Y-69755924D01*
X61590000Y-70930000D01*
X62763979Y-70930000D01*
X62864643Y-70719574D01*
X62863473Y-70713684D01*
X62786087Y-70460604D01*
X62660815Y-70227484D01*
X62492470Y-70023283D01*
X62287522Y-69855848D01*
X62053847Y-69731614D01*
X61800426Y-69655355D01*
X61590000Y-69755924D01*
X61490000Y-69755924D01*
X61279574Y-69655355D01*
X61026153Y-69731614D01*
X60792478Y-69855848D01*
X60587530Y-70023283D01*
X60419185Y-70227484D01*
X60293913Y-70460604D01*
X60273602Y-70527028D01*
X60196354Y-70340535D01*
X60048613Y-70119425D01*
X59860575Y-69931387D01*
X59639465Y-69783646D01*
X59393780Y-69681880D01*
X59132963Y-69630000D01*
X58867037Y-69630000D01*
X58606220Y-69681880D01*
X58360535Y-69783646D01*
X58139425Y-69931387D01*
X57951387Y-70119425D01*
X57803646Y-70340535D01*
X57701880Y-70586220D01*
X57650000Y-70847037D01*
X57200000Y-70847037D01*
X57200000Y-68760426D01*
X73175355Y-68760426D01*
X73251614Y-69013847D01*
X73375848Y-69247522D01*
X73543283Y-69452470D01*
X73747484Y-69620815D01*
X73980604Y-69746087D01*
X74233684Y-69823473D01*
X74239574Y-69824643D01*
X74450000Y-69723979D01*
X74450000Y-68550000D01*
X73275924Y-68550000D01*
X73175355Y-68760426D01*
X57200000Y-68760426D01*
X57200000Y-68239574D01*
X73175355Y-68239574D01*
X73275924Y-68450000D01*
X74450000Y-68450000D01*
X74450000Y-67276021D01*
X74239574Y-67175357D01*
X74233684Y-67176527D01*
X73980604Y-67253913D01*
X73747484Y-67379185D01*
X73543283Y-67547530D01*
X73375848Y-67752478D01*
X73251614Y-67986153D01*
X73175355Y-68239574D01*
X57200000Y-68239574D01*
X57200000Y-65219698D01*
X57203268Y-65203268D01*
X57219698Y-65200000D01*
X110780302Y-65200000D01*
X110796732Y-65203268D01*
G37*
X110796732Y-65203268D02*
X110800000Y-65219698D01*
X110800000Y-93748309D01*
X109175000Y-93750000D01*
X109050000Y-93875000D01*
X109050000Y-95700000D01*
X109070000Y-95700000D01*
X109070000Y-95800000D01*
X109050000Y-95800000D01*
X109050000Y-97625000D01*
X109175000Y-97750000D01*
X110800000Y-97751691D01*
X110800000Y-99748309D01*
X109175000Y-99750000D01*
X109050000Y-99875000D01*
X109050000Y-101700000D01*
X109070000Y-101700000D01*
X109070000Y-101800000D01*
X109050000Y-101800000D01*
X109050000Y-103625000D01*
X109175000Y-103750000D01*
X110800000Y-103751691D01*
X110800000Y-126780302D01*
X110796732Y-126796732D01*
X110780302Y-126800000D01*
X57219698Y-126800000D01*
X57203268Y-126796732D01*
X57200000Y-126780302D01*
X57200000Y-122491358D01*
X79120000Y-122491358D01*
X79120000Y-122668642D01*
X79154586Y-122842520D01*
X79222430Y-123006310D01*
X79320924Y-123153717D01*
X79446283Y-123279076D01*
X79593690Y-123377570D01*
X79757480Y-123445414D01*
X79931358Y-123480000D01*
X80108642Y-123480000D01*
X80234327Y-123455000D01*
X98697581Y-123455000D01*
X98697581Y-123550000D01*
X98707235Y-123648017D01*
X98735825Y-123742267D01*
X98782254Y-123829129D01*
X98844736Y-123905264D01*
X98920871Y-123967746D01*
X99007733Y-124014175D01*
X99101983Y-124042765D01*
X99200000Y-124052419D01*
X100800000Y-124052419D01*
X100898017Y-124042765D01*
X100992267Y-124014175D01*
X101079129Y-123967746D01*
X101155264Y-123905264D01*
X101217746Y-123829129D01*
X101250499Y-123767853D01*
X101273195Y-123835425D01*
X101498917Y-123956362D01*
X101743894Y-124030938D01*
X101998714Y-124056289D01*
X102253583Y-124031439D01*
X102498707Y-123957345D01*
X102724666Y-123836854D01*
X102726805Y-123835425D01*
X102732727Y-123817791D01*
X106150000Y-123817791D01*
X106150000Y-124182209D01*
X106221095Y-124539625D01*
X106360552Y-124876303D01*
X106563011Y-125179306D01*
X106820694Y-125436989D01*
X107123697Y-125639448D01*
X107460375Y-125778905D01*
X107817791Y-125850000D01*
X108182209Y-125850000D01*
X108539625Y-125778905D01*
X108876303Y-125639448D01*
X109179306Y-125436989D01*
X109436989Y-125179306D01*
X109639448Y-124876303D01*
X109778905Y-124539625D01*
X109850000Y-124182209D01*
X109850000Y-123817791D01*
X109778905Y-123460375D01*
X109639448Y-123123697D01*
X109436989Y-122820694D01*
X109179306Y-122563011D01*
X108876303Y-122360552D01*
X108539625Y-122221095D01*
X108182209Y-122150000D01*
X107817791Y-122150000D01*
X107460375Y-122221095D01*
X107123697Y-122360552D01*
X106820694Y-122563011D01*
X106563011Y-122820694D01*
X106360552Y-123123697D01*
X106221095Y-123460375D01*
X106150000Y-123817791D01*
X102732727Y-123817791D01*
X102799194Y-123619905D01*
X102000000Y-122820711D01*
X101985858Y-122834853D01*
X101915147Y-122764142D01*
X101929289Y-122750000D01*
X102070711Y-122750000D01*
X102869905Y-123549194D01*
X103085425Y-123476805D01*
X103206362Y-123251083D01*
X103280938Y-123006106D01*
X103306289Y-122751286D01*
X103281439Y-122496417D01*
X103207345Y-122251293D01*
X103086854Y-122025334D01*
X103085425Y-122023195D01*
X102869905Y-121950806D01*
X102070711Y-122750000D01*
X101929289Y-122750000D01*
X101915147Y-122735858D01*
X101985858Y-122665147D01*
X102000000Y-122679289D01*
X102799194Y-121880095D01*
X102726805Y-121664575D01*
X102501083Y-121543638D01*
X102256106Y-121469062D01*
X102001286Y-121443711D01*
X101746417Y-121468561D01*
X101501293Y-121542655D01*
X101275334Y-121663146D01*
X101273195Y-121664575D01*
X101250499Y-121732147D01*
X101217746Y-121670871D01*
X101155264Y-121594736D01*
X101079129Y-121532254D01*
X100992267Y-121485825D01*
X100898017Y-121457235D01*
X100800000Y-121447581D01*
X99200000Y-121447581D01*
X99101983Y-121457235D01*
X99007733Y-121485825D01*
X98920871Y-121532254D01*
X98844736Y-121594736D01*
X98782254Y-121670871D01*
X98764012Y-121705000D01*
X80234327Y-121705000D01*
X80108642Y-121680000D01*
X79931358Y-121680000D01*
X79757480Y-121714586D01*
X79593690Y-121782430D01*
X79446283Y-121880924D01*
X79320924Y-122006283D01*
X79222430Y-122153690D01*
X79154586Y-122317480D01*
X79120000Y-122491358D01*
X57200000Y-122491358D01*
X57200000Y-70847037D01*
X57650000Y-70847037D01*
X57650000Y-71112963D01*
X57701880Y-71373780D01*
X57803646Y-71619465D01*
X57951387Y-71840575D01*
X58139425Y-72028613D01*
X58360535Y-72176354D01*
X58538332Y-72250000D01*
X58360535Y-72323646D01*
X58139425Y-72471387D01*
X57951387Y-72659425D01*
X57803646Y-72880535D01*
X57701880Y-73126220D01*
X57650000Y-73387037D01*
X57650000Y-73652963D01*
X57701880Y-73913780D01*
X57803646Y-74159465D01*
X57951387Y-74380575D01*
X58139425Y-74568613D01*
X58360535Y-74716354D01*
X58538332Y-74790000D01*
X58360535Y-74863646D01*
X58139425Y-75011387D01*
X57951387Y-75199425D01*
X57803646Y-75420535D01*
X57701880Y-75666220D01*
X57650000Y-75927037D01*
X57650000Y-76192963D01*
X57701880Y-76453780D01*
X57803646Y-76699465D01*
X57951387Y-76920575D01*
X58139425Y-77108613D01*
X58360535Y-77256354D01*
X58546600Y-77333424D01*
X58486153Y-77351614D01*
X58252478Y-77475848D01*
X58047530Y-77643283D01*
X57879185Y-77847484D01*
X57753913Y-78080604D01*
X57676527Y-78333684D01*
X57675357Y-78339574D01*
X57776021Y-78550000D01*
X58950000Y-78550000D01*
X58950000Y-78530000D01*
X59050000Y-78530000D01*
X59050000Y-78550000D01*
X59070000Y-78550000D01*
X59070000Y-78650000D01*
X59050000Y-78650000D01*
X59050000Y-78670000D01*
X58950000Y-78670000D01*
X58950000Y-78650000D01*
X57776021Y-78650000D01*
X57675357Y-78860426D01*
X57676527Y-78866316D01*
X57753913Y-79119396D01*
X57879185Y-79352516D01*
X58047530Y-79556717D01*
X58252478Y-79724152D01*
X58486153Y-79848386D01*
X58546600Y-79866576D01*
X58360535Y-79943646D01*
X58139425Y-80091387D01*
X57951387Y-80279425D01*
X57803646Y-80500535D01*
X57701880Y-80746220D01*
X57650000Y-81007037D01*
X57650000Y-81272963D01*
X57701880Y-81533780D01*
X57803646Y-81779465D01*
X57951387Y-82000575D01*
X58139425Y-82188613D01*
X58360535Y-82336354D01*
X58546600Y-82413424D01*
X58486153Y-82431614D01*
X58252478Y-82555848D01*
X58047530Y-82723283D01*
X57879185Y-82927484D01*
X57753913Y-83160604D01*
X57676527Y-83413684D01*
X57675357Y-83419574D01*
X57776021Y-83630000D01*
X58950000Y-83630000D01*
X58950000Y-83610000D01*
X59050000Y-83610000D01*
X59050000Y-83630000D01*
X59070000Y-83630000D01*
X59070000Y-83730000D01*
X59050000Y-83730000D01*
X59050000Y-83750000D01*
X58950000Y-83750000D01*
X58950000Y-83730000D01*
X57776021Y-83730000D01*
X57675357Y-83940426D01*
X57676527Y-83946316D01*
X57753913Y-84199396D01*
X57879185Y-84432516D01*
X58047530Y-84636717D01*
X58252478Y-84804152D01*
X58486153Y-84928386D01*
X58546600Y-84946576D01*
X58360535Y-85023646D01*
X58139425Y-85171387D01*
X57951387Y-85359425D01*
X57803646Y-85580535D01*
X57701880Y-85826220D01*
X57650000Y-86087037D01*
X57650000Y-86352963D01*
X57701880Y-86613780D01*
X57803646Y-86859465D01*
X57951387Y-87080575D01*
X58139425Y-87268613D01*
X58360535Y-87416354D01*
X58538332Y-87490000D01*
X58360535Y-87563646D01*
X58139425Y-87711387D01*
X57951387Y-87899425D01*
X57803646Y-88120535D01*
X57701880Y-88366220D01*
X57650000Y-88627037D01*
X57650000Y-88892963D01*
X57701880Y-89153780D01*
X57803646Y-89399465D01*
X57951387Y-89620575D01*
X58139425Y-89808613D01*
X58360535Y-89956354D01*
X58538332Y-90030000D01*
X58360535Y-90103646D01*
X58139425Y-90251387D01*
X57951387Y-90439425D01*
X57803646Y-90660535D01*
X57701880Y-90906220D01*
X57650000Y-91167037D01*
X57650000Y-91432963D01*
X57701880Y-91693780D01*
X57803646Y-91939465D01*
X57951387Y-92160575D01*
X58139425Y-92348613D01*
X58360535Y-92496354D01*
X58538332Y-92570000D01*
X58360535Y-92643646D01*
X58139425Y-92791387D01*
X57951387Y-92979425D01*
X57803646Y-93200535D01*
X57701880Y-93446220D01*
X57650000Y-93707037D01*
X57650000Y-93972963D01*
X57701880Y-94233780D01*
X57803646Y-94479465D01*
X57951387Y-94700575D01*
X58139425Y-94888613D01*
X58360535Y-95036354D01*
X58546600Y-95113424D01*
X58486153Y-95131614D01*
X58252478Y-95255848D01*
X58047530Y-95423283D01*
X57879185Y-95627484D01*
X57753913Y-95860604D01*
X57676527Y-96113684D01*
X57675357Y-96119574D01*
X57776021Y-96330000D01*
X58950000Y-96330000D01*
X58950000Y-96310000D01*
X59050000Y-96310000D01*
X59050000Y-96330000D01*
X59070000Y-96330000D01*
X59070000Y-96430000D01*
X59050000Y-96430000D01*
X59050000Y-96450000D01*
X58950000Y-96450000D01*
X58950000Y-96430000D01*
X57776021Y-96430000D01*
X57675357Y-96640426D01*
X57676527Y-96646316D01*
X57753913Y-96899396D01*
X57879185Y-97132516D01*
X58047530Y-97336717D01*
X58252478Y-97504152D01*
X58486153Y-97628386D01*
X58546600Y-97646576D01*
X58360535Y-97723646D01*
X58139425Y-97871387D01*
X57951387Y-98059425D01*
X57803646Y-98280535D01*
X57701880Y-98526220D01*
X57650000Y-98787037D01*
X57650000Y-99052963D01*
X57701880Y-99313780D01*
X57803646Y-99559465D01*
X57951387Y-99780575D01*
X58139425Y-99968613D01*
X58360535Y-100116354D01*
X58538332Y-100190000D01*
X58360535Y-100263646D01*
X58139425Y-100411387D01*
X57951387Y-100599425D01*
X57803646Y-100820535D01*
X57701880Y-101066220D01*
X57650000Y-101327037D01*
X57650000Y-101592963D01*
X57701880Y-101853780D01*
X57803646Y-102099465D01*
X57951387Y-102320575D01*
X58139425Y-102508613D01*
X58360535Y-102656354D01*
X58546600Y-102733424D01*
X58486153Y-102751614D01*
X58252478Y-102875848D01*
X58047530Y-103043283D01*
X57879185Y-103247484D01*
X57753913Y-103480604D01*
X57676527Y-103733684D01*
X57675357Y-103739574D01*
X57776021Y-103950000D01*
X58950000Y-103950000D01*
X58950000Y-103930000D01*
X59050000Y-103930000D01*
X59050000Y-103950000D01*
X59070000Y-103950000D01*
X59070000Y-104050000D01*
X59050000Y-104050000D01*
X59050000Y-104070000D01*
X58950000Y-104070000D01*
X58950000Y-104050000D01*
X57776021Y-104050000D01*
X57675357Y-104260426D01*
X57676527Y-104266316D01*
X57753913Y-104519396D01*
X57879185Y-104752516D01*
X58047530Y-104956717D01*
X58252478Y-105124152D01*
X58486153Y-105248386D01*
X58546600Y-105266576D01*
X58360535Y-105343646D01*
X58139425Y-105491387D01*
X57951387Y-105679425D01*
X57803646Y-105900535D01*
X57701880Y-106146220D01*
X57650000Y-106407037D01*
X57650000Y-106672963D01*
X57701880Y-106933780D01*
X57803646Y-107179465D01*
X57951387Y-107400575D01*
X58139425Y-107588613D01*
X58360535Y-107736354D01*
X58538332Y-107810000D01*
X58360535Y-107883646D01*
X58139425Y-108031387D01*
X57951387Y-108219425D01*
X57803646Y-108440535D01*
X57701880Y-108686220D01*
X57650000Y-108947037D01*
X57650000Y-109212963D01*
X57701880Y-109473780D01*
X57803646Y-109719465D01*
X57951387Y-109940575D01*
X58139425Y-110128613D01*
X58360535Y-110276354D01*
X58538332Y-110350000D01*
X58360535Y-110423646D01*
X58139425Y-110571387D01*
X57951387Y-110759425D01*
X57803646Y-110980535D01*
X57701880Y-111226220D01*
X57650000Y-111487037D01*
X57650000Y-111752963D01*
X57701880Y-112013780D01*
X57803646Y-112259465D01*
X57951387Y-112480575D01*
X58139425Y-112668613D01*
X58360535Y-112816354D01*
X58546600Y-112893424D01*
X58486153Y-112911614D01*
X58252478Y-113035848D01*
X58047530Y-113203283D01*
X57879185Y-113407484D01*
X57753913Y-113640604D01*
X57676527Y-113893684D01*
X57675357Y-113899574D01*
X57776021Y-114110000D01*
X58950000Y-114110000D01*
X58950000Y-114090000D01*
X59050000Y-114090000D01*
X59050000Y-114110000D01*
X59070000Y-114110000D01*
X59070000Y-114210000D01*
X59050000Y-114210000D01*
X59050000Y-114230000D01*
X58950000Y-114230000D01*
X58950000Y-114210000D01*
X57776021Y-114210000D01*
X57675357Y-114420426D01*
X57676527Y-114426316D01*
X57753913Y-114679396D01*
X57879185Y-114912516D01*
X58047530Y-115116717D01*
X58252478Y-115284152D01*
X58486153Y-115408386D01*
X58546600Y-115426576D01*
X58360535Y-115503646D01*
X58139425Y-115651387D01*
X57951387Y-115839425D01*
X57803646Y-116060535D01*
X57701880Y-116306220D01*
X57650000Y-116567037D01*
X57650000Y-116832963D01*
X57701880Y-117093780D01*
X57803646Y-117339465D01*
X57951387Y-117560575D01*
X58139425Y-117748613D01*
X58360535Y-117896354D01*
X58538332Y-117970000D01*
X58360535Y-118043646D01*
X58139425Y-118191387D01*
X57951387Y-118379425D01*
X57803646Y-118600535D01*
X57701880Y-118846220D01*
X57650000Y-119107037D01*
X57650000Y-119372963D01*
X57701880Y-119633780D01*
X57803646Y-119879465D01*
X57951387Y-120100575D01*
X58139425Y-120288613D01*
X58360535Y-120436354D01*
X58606220Y-120538120D01*
X58867037Y-120590000D01*
X59132963Y-120590000D01*
X59393780Y-120538120D01*
X59639465Y-120436354D01*
X59860575Y-120288613D01*
X60048613Y-120100575D01*
X60187581Y-119892595D01*
X60187581Y-120090000D01*
X60197235Y-120188017D01*
X60225825Y-120282267D01*
X60272254Y-120369129D01*
X60334736Y-120445264D01*
X60410871Y-120507746D01*
X60497733Y-120554175D01*
X60591983Y-120582765D01*
X60690000Y-120592419D01*
X62390000Y-120592419D01*
X62488017Y-120582765D01*
X62582267Y-120554175D01*
X62669129Y-120507746D01*
X62745264Y-120445264D01*
X62807746Y-120369129D01*
X62854175Y-120282267D01*
X62882765Y-120188017D01*
X62892419Y-120090000D01*
X62892419Y-118390000D01*
X62882765Y-118291983D01*
X62854175Y-118197733D01*
X62807746Y-118110871D01*
X62745264Y-118034736D01*
X62669129Y-117972254D01*
X62582267Y-117925825D01*
X62488017Y-117897235D01*
X62390000Y-117887581D01*
X62192595Y-117887581D01*
X62400575Y-117748613D01*
X62588613Y-117560575D01*
X62695906Y-117400000D01*
X88065613Y-117400000D01*
X88100000Y-117403387D01*
X88134387Y-117400000D01*
X88134390Y-117400000D01*
X88237224Y-117389872D01*
X88369175Y-117349845D01*
X88490781Y-117284845D01*
X88597370Y-117197370D01*
X88619296Y-117170653D01*
X92350658Y-113439291D01*
X92377369Y-113417370D01*
X92437518Y-113344079D01*
X92464845Y-113310782D01*
X92529845Y-113189175D01*
X92544661Y-113140334D01*
X92569872Y-113057224D01*
X92580000Y-112954390D01*
X92580000Y-112954388D01*
X92583387Y-112920001D01*
X92580000Y-112885614D01*
X92580000Y-110800000D01*
X100597581Y-110800000D01*
X100597581Y-115200000D01*
X100607235Y-115298017D01*
X100635825Y-115392267D01*
X100682254Y-115479129D01*
X100744736Y-115555264D01*
X100820871Y-115617746D01*
X100907733Y-115664175D01*
X101001983Y-115692765D01*
X101100000Y-115702419D01*
X102900000Y-115702419D01*
X102998017Y-115692765D01*
X103092267Y-115664175D01*
X103179129Y-115617746D01*
X103255264Y-115555264D01*
X103317746Y-115479129D01*
X103364175Y-115392267D01*
X103392765Y-115298017D01*
X103402419Y-115200000D01*
X103402419Y-113050000D01*
X106400000Y-113050000D01*
X106400000Y-114150000D01*
X106436655Y-114422166D01*
X106525703Y-114681951D01*
X106663721Y-114919372D01*
X106845406Y-115125305D01*
X107063775Y-115291836D01*
X107310437Y-115412566D01*
X107531747Y-115474060D01*
X107750000Y-115374019D01*
X107750000Y-113050000D01*
X107850000Y-113050000D01*
X107850000Y-115374019D01*
X108068253Y-115474060D01*
X108289563Y-115412566D01*
X108536225Y-115291836D01*
X108754594Y-115125305D01*
X108936279Y-114919372D01*
X109074297Y-114681951D01*
X109163345Y-114422166D01*
X109200000Y-114150000D01*
X109200000Y-113050000D01*
X107850000Y-113050000D01*
X107750000Y-113050000D01*
X106400000Y-113050000D01*
X103402419Y-113050000D01*
X103402419Y-111850000D01*
X106400000Y-111850000D01*
X106400000Y-112950000D01*
X107750000Y-112950000D01*
X107750000Y-110625981D01*
X107850000Y-110625981D01*
X107850000Y-112950000D01*
X109200000Y-112950000D01*
X109200000Y-111850000D01*
X109163345Y-111577834D01*
X109074297Y-111318049D01*
X108936279Y-111080628D01*
X108754594Y-110874695D01*
X108536225Y-110708164D01*
X108289563Y-110587434D01*
X108068253Y-110525940D01*
X107850000Y-110625981D01*
X107750000Y-110625981D01*
X107531747Y-110525940D01*
X107310437Y-110587434D01*
X107063775Y-110708164D01*
X106845406Y-110874695D01*
X106663721Y-111080628D01*
X106525703Y-111318049D01*
X106436655Y-111577834D01*
X106400000Y-111850000D01*
X103402419Y-111850000D01*
X103402419Y-110800000D01*
X103392765Y-110701983D01*
X103364175Y-110607733D01*
X103317746Y-110520871D01*
X103255264Y-110444736D01*
X103179129Y-110382254D01*
X103092267Y-110335825D01*
X102998017Y-110307235D01*
X102900000Y-110297581D01*
X101100000Y-110297581D01*
X101001983Y-110307235D01*
X100907733Y-110335825D01*
X100820871Y-110382254D01*
X100744736Y-110444736D01*
X100682254Y-110520871D01*
X100635825Y-110607733D01*
X100607235Y-110701983D01*
X100597581Y-110800000D01*
X92580000Y-110800000D01*
X92580000Y-108468253D01*
X102525940Y-108468253D01*
X102587434Y-108689563D01*
X102708164Y-108936225D01*
X102874695Y-109154594D01*
X103080628Y-109336279D01*
X103318049Y-109474297D01*
X103577834Y-109563345D01*
X103850000Y-109600000D01*
X104950000Y-109600000D01*
X104950000Y-108250000D01*
X105050000Y-108250000D01*
X105050000Y-109600000D01*
X106150000Y-109600000D01*
X106422166Y-109563345D01*
X106681951Y-109474297D01*
X106919372Y-109336279D01*
X107125305Y-109154594D01*
X107291836Y-108936225D01*
X107412566Y-108689563D01*
X107474060Y-108468253D01*
X107374019Y-108250000D01*
X105050000Y-108250000D01*
X104950000Y-108250000D01*
X102625981Y-108250000D01*
X102525940Y-108468253D01*
X92580000Y-108468253D01*
X92580000Y-107931747D01*
X102525940Y-107931747D01*
X102625981Y-108150000D01*
X104950000Y-108150000D01*
X104950000Y-106800000D01*
X105050000Y-106800000D01*
X105050000Y-108150000D01*
X107374019Y-108150000D01*
X107474060Y-107931747D01*
X107412566Y-107710437D01*
X107291836Y-107463775D01*
X107125305Y-107245406D01*
X106919372Y-107063721D01*
X106681951Y-106925703D01*
X106422166Y-106836655D01*
X106150000Y-106800000D01*
X105050000Y-106800000D01*
X104950000Y-106800000D01*
X103850000Y-106800000D01*
X103577834Y-106836655D01*
X103318049Y-106925703D01*
X103080628Y-107063721D01*
X102874695Y-107245406D01*
X102708164Y-107463775D01*
X102587434Y-107710437D01*
X102525940Y-107931747D01*
X92580000Y-107931747D01*
X92580000Y-107355906D01*
X92740575Y-107248613D01*
X92928613Y-107060575D01*
X93067581Y-106852595D01*
X93067581Y-107050000D01*
X93077235Y-107148017D01*
X93105825Y-107242267D01*
X93152254Y-107329129D01*
X93214736Y-107405264D01*
X93290871Y-107467746D01*
X93377733Y-107514175D01*
X93471983Y-107542765D01*
X93570000Y-107552419D01*
X95270000Y-107552419D01*
X95368017Y-107542765D01*
X95462267Y-107514175D01*
X95549129Y-107467746D01*
X95625264Y-107405264D01*
X95687746Y-107329129D01*
X95734175Y-107242267D01*
X95762765Y-107148017D01*
X95772419Y-107050000D01*
X95772419Y-105350000D01*
X95762765Y-105251983D01*
X95734175Y-105157733D01*
X95687746Y-105070871D01*
X95625264Y-104994736D01*
X95549129Y-104932254D01*
X95462267Y-104885825D01*
X95368017Y-104857235D01*
X95270000Y-104847581D01*
X93570000Y-104847581D01*
X93471983Y-104857235D01*
X93377733Y-104885825D01*
X93290871Y-104932254D01*
X93214736Y-104994736D01*
X93152254Y-105070871D01*
X93105825Y-105157733D01*
X93077235Y-105251983D01*
X93067581Y-105350000D01*
X93067581Y-105547405D01*
X92928613Y-105339425D01*
X92740575Y-105151387D01*
X92519465Y-105003646D01*
X92273780Y-104901880D01*
X92012963Y-104850000D01*
X91747037Y-104850000D01*
X91486220Y-104901880D01*
X91240535Y-105003646D01*
X91019425Y-105151387D01*
X90831387Y-105339425D01*
X90683646Y-105560535D01*
X90610000Y-105738332D01*
X90536354Y-105560535D01*
X90388613Y-105339425D01*
X90200575Y-105151387D01*
X89979465Y-105003646D01*
X89733780Y-104901880D01*
X89472963Y-104850000D01*
X89207037Y-104850000D01*
X88946220Y-104901880D01*
X88700535Y-105003646D01*
X88479425Y-105151387D01*
X88291387Y-105339425D01*
X88143646Y-105560535D01*
X88066576Y-105746600D01*
X88048386Y-105686153D01*
X87924152Y-105452478D01*
X87756717Y-105247530D01*
X87552516Y-105079185D01*
X87319396Y-104953913D01*
X87066316Y-104876527D01*
X87060426Y-104875357D01*
X86850000Y-104976021D01*
X86850000Y-106150000D01*
X86870000Y-106150000D01*
X86870000Y-106250000D01*
X86850000Y-106250000D01*
X86850000Y-107423979D01*
X87060426Y-107524643D01*
X87066316Y-107523473D01*
X87319396Y-107446087D01*
X87552516Y-107320815D01*
X87756717Y-107152470D01*
X87924152Y-106947522D01*
X88048386Y-106713847D01*
X88066576Y-106653400D01*
X88143646Y-106839465D01*
X88291387Y-107060575D01*
X88479425Y-107248613D01*
X88640001Y-107355906D01*
X88640000Y-110770050D01*
X85950051Y-113460000D01*
X62695906Y-113460000D01*
X62691236Y-113453011D01*
X62748911Y-113422183D01*
X62844080Y-113344080D01*
X62863658Y-113320224D01*
X66570230Y-109613653D01*
X66594080Y-109594080D01*
X66672183Y-109498911D01*
X66730219Y-109390334D01*
X66765957Y-109272521D01*
X66775000Y-109180704D01*
X66775000Y-109180702D01*
X66778024Y-109150000D01*
X66775000Y-109119299D01*
X66775000Y-108995292D01*
X67447581Y-108322712D01*
X67447581Y-109450000D01*
X67457235Y-109548017D01*
X67485825Y-109642267D01*
X67532254Y-109729129D01*
X67594736Y-109805264D01*
X67670871Y-109867746D01*
X67757733Y-109914175D01*
X67851983Y-109942765D01*
X67950000Y-109952419D01*
X69650000Y-109952419D01*
X69748017Y-109942765D01*
X69842267Y-109914175D01*
X69929129Y-109867746D01*
X70005264Y-109805264D01*
X70067746Y-109729129D01*
X70114175Y-109642267D01*
X70142765Y-109548017D01*
X70152419Y-109450000D01*
X70152419Y-109252595D01*
X70291387Y-109460575D01*
X70479425Y-109648613D01*
X70700535Y-109796354D01*
X70946220Y-109898120D01*
X71207037Y-109950000D01*
X71472963Y-109950000D01*
X71733780Y-109898120D01*
X71979465Y-109796354D01*
X72200575Y-109648613D01*
X72388613Y-109460575D01*
X72536354Y-109239465D01*
X72613424Y-109053400D01*
X72631614Y-109113847D01*
X72755848Y-109347522D01*
X72923283Y-109552470D01*
X73127484Y-109720815D01*
X73360604Y-109846087D01*
X73613684Y-109923473D01*
X73619574Y-109924643D01*
X73830000Y-109823979D01*
X73830000Y-108650000D01*
X73930000Y-108650000D01*
X73930000Y-109823979D01*
X74140426Y-109924643D01*
X74146316Y-109923473D01*
X74399396Y-109846087D01*
X74632516Y-109720815D01*
X74836717Y-109552470D01*
X75004152Y-109347522D01*
X75128386Y-109113847D01*
X75150000Y-109042020D01*
X75171614Y-109113847D01*
X75295848Y-109347522D01*
X75463283Y-109552470D01*
X75667484Y-109720815D01*
X75900604Y-109846087D01*
X76153684Y-109923473D01*
X76159574Y-109924643D01*
X76370000Y-109823979D01*
X76370000Y-108650000D01*
X76470000Y-108650000D01*
X76470000Y-109823979D01*
X76680426Y-109924643D01*
X76686316Y-109923473D01*
X76939396Y-109846087D01*
X77172516Y-109720815D01*
X77376717Y-109552470D01*
X77544152Y-109347522D01*
X77668386Y-109113847D01*
X77744645Y-108860426D01*
X77644076Y-108650000D01*
X76470000Y-108650000D01*
X76370000Y-108650000D01*
X75195924Y-108650000D01*
X75150000Y-108746089D01*
X75104076Y-108650000D01*
X73930000Y-108650000D01*
X73830000Y-108650000D01*
X73810000Y-108650000D01*
X73810000Y-108550000D01*
X73830000Y-108550000D01*
X73830000Y-107376021D01*
X73930000Y-107376021D01*
X73930000Y-108550000D01*
X75104076Y-108550000D01*
X75150000Y-108453911D01*
X75195924Y-108550000D01*
X76370000Y-108550000D01*
X76370000Y-107376021D01*
X76470000Y-107376021D01*
X76470000Y-108550000D01*
X77644076Y-108550000D01*
X77744645Y-108339574D01*
X77668386Y-108086153D01*
X77544152Y-107852478D01*
X77376717Y-107647530D01*
X77172516Y-107479185D01*
X76939396Y-107353913D01*
X76686316Y-107276527D01*
X76680426Y-107275357D01*
X76470000Y-107376021D01*
X76370000Y-107376021D01*
X76159574Y-107275357D01*
X76153684Y-107276527D01*
X75900604Y-107353913D01*
X75667484Y-107479185D01*
X75463283Y-107647530D01*
X75295848Y-107852478D01*
X75171614Y-108086153D01*
X75150000Y-108157980D01*
X75128386Y-108086153D01*
X75004152Y-107852478D01*
X74836717Y-107647530D01*
X74632516Y-107479185D01*
X74399396Y-107353913D01*
X74146316Y-107276527D01*
X74140426Y-107275357D01*
X73930000Y-107376021D01*
X73830000Y-107376021D01*
X73619574Y-107275357D01*
X73613684Y-107276527D01*
X73360604Y-107353913D01*
X73127484Y-107479185D01*
X72923283Y-107647530D01*
X72755848Y-107852478D01*
X72631614Y-108086153D01*
X72613424Y-108146600D01*
X72536354Y-107960535D01*
X72388613Y-107739425D01*
X72200575Y-107551387D01*
X72195731Y-107548151D01*
X73283456Y-106460426D01*
X85475355Y-106460426D01*
X85551614Y-106713847D01*
X85675848Y-106947522D01*
X85843283Y-107152470D01*
X86047484Y-107320815D01*
X86280604Y-107446087D01*
X86533684Y-107523473D01*
X86539574Y-107524643D01*
X86750000Y-107423979D01*
X86750000Y-106250000D01*
X85575924Y-106250000D01*
X85475355Y-106460426D01*
X73283456Y-106460426D01*
X73451754Y-106292128D01*
X73466220Y-106298120D01*
X73727037Y-106350000D01*
X73992963Y-106350000D01*
X74253780Y-106298120D01*
X74499465Y-106196354D01*
X74720575Y-106048613D01*
X74908613Y-105860575D01*
X75047581Y-105652595D01*
X75047581Y-105850000D01*
X75057235Y-105948017D01*
X75085825Y-106042267D01*
X75132254Y-106129129D01*
X75194736Y-106205264D01*
X75270871Y-106267746D01*
X75357733Y-106314175D01*
X75451983Y-106342765D01*
X75550000Y-106352419D01*
X77250000Y-106352419D01*
X77348017Y-106342765D01*
X77442267Y-106314175D01*
X77529129Y-106267746D01*
X77605264Y-106205264D01*
X77667746Y-106129129D01*
X77714175Y-106042267D01*
X77742765Y-105948017D01*
X77743596Y-105939574D01*
X85475355Y-105939574D01*
X85575924Y-106150000D01*
X86750000Y-106150000D01*
X86750000Y-104976021D01*
X86539574Y-104875357D01*
X86533684Y-104876527D01*
X86280604Y-104953913D01*
X86047484Y-105079185D01*
X85843283Y-105247530D01*
X85675848Y-105452478D01*
X85551614Y-105686153D01*
X85475355Y-105939574D01*
X77743596Y-105939574D01*
X77752419Y-105850000D01*
X77752419Y-104150000D01*
X77742765Y-104051983D01*
X77714175Y-103957733D01*
X77667746Y-103870871D01*
X77605264Y-103794736D01*
X77529129Y-103732254D01*
X77442267Y-103685825D01*
X77348017Y-103657235D01*
X77250000Y-103647581D01*
X75550000Y-103647581D01*
X75451983Y-103657235D01*
X75357733Y-103685825D01*
X75270871Y-103732254D01*
X75194736Y-103794736D01*
X75132254Y-103870871D01*
X75085825Y-103957733D01*
X75057235Y-104051983D01*
X75047581Y-104150000D01*
X75047581Y-104347405D01*
X74908613Y-104139425D01*
X74720575Y-103951387D01*
X74499465Y-103803646D01*
X74253780Y-103701880D01*
X73992963Y-103650000D01*
X73727037Y-103650000D01*
X73466220Y-103701880D01*
X73220535Y-103803646D01*
X72999425Y-103951387D01*
X72811387Y-104139425D01*
X72663646Y-104360535D01*
X72590000Y-104538332D01*
X72516354Y-104360535D01*
X72368613Y-104139425D01*
X72180575Y-103951387D01*
X71959465Y-103803646D01*
X71713780Y-103701880D01*
X71452963Y-103650000D01*
X71187037Y-103650000D01*
X70926220Y-103701880D01*
X70680535Y-103803646D01*
X70459425Y-103951387D01*
X70271387Y-104139425D01*
X70123646Y-104360535D01*
X70046576Y-104546600D01*
X70028386Y-104486153D01*
X69904152Y-104252478D01*
X69736717Y-104047530D01*
X69532516Y-103879185D01*
X69299396Y-103753913D01*
X69046316Y-103676527D01*
X69040426Y-103675357D01*
X68830000Y-103776021D01*
X68830000Y-104950000D01*
X68850000Y-104950000D01*
X68850000Y-105050000D01*
X68830000Y-105050000D01*
X68830000Y-105070000D01*
X68730000Y-105070000D01*
X68730000Y-105050000D01*
X67555924Y-105050000D01*
X67455355Y-105260426D01*
X67531614Y-105513847D01*
X67655848Y-105747522D01*
X67823283Y-105952470D01*
X68027484Y-106120815D01*
X68035251Y-106124989D01*
X67530704Y-106124989D01*
X67500010Y-106121966D01*
X67469316Y-106124989D01*
X67469307Y-106124989D01*
X67377490Y-106134032D01*
X67259677Y-106169770D01*
X67259675Y-106169771D01*
X67151098Y-106227807D01*
X67079779Y-106286337D01*
X67079776Y-106286340D01*
X67055931Y-106305909D01*
X67036362Y-106329754D01*
X63641118Y-109725000D01*
X62718591Y-109725000D01*
X62786087Y-109599396D01*
X62863473Y-109346316D01*
X62864643Y-109340426D01*
X62763979Y-109130000D01*
X61590000Y-109130000D01*
X61590000Y-109150000D01*
X61490000Y-109150000D01*
X61490000Y-109130000D01*
X61470000Y-109130000D01*
X61470000Y-109030000D01*
X61490000Y-109030000D01*
X61490000Y-109010000D01*
X61590000Y-109010000D01*
X61590000Y-109030000D01*
X62763979Y-109030000D01*
X62864643Y-108819574D01*
X62863473Y-108813684D01*
X62786087Y-108560604D01*
X62660815Y-108327484D01*
X62492470Y-108123283D01*
X62287522Y-107955848D01*
X62053847Y-107831614D01*
X61993400Y-107813424D01*
X62179465Y-107736354D01*
X62400575Y-107588613D01*
X62588613Y-107400575D01*
X62736354Y-107179465D01*
X62838120Y-106933780D01*
X62890000Y-106672963D01*
X62890000Y-106407037D01*
X62838120Y-106146220D01*
X62736354Y-105900535D01*
X62719292Y-105875000D01*
X65219306Y-105875000D01*
X65250000Y-105878023D01*
X65280694Y-105875000D01*
X65280704Y-105875000D01*
X65372521Y-105865957D01*
X65490334Y-105830219D01*
X65598911Y-105772183D01*
X65694080Y-105694080D01*
X65713658Y-105670224D01*
X66644308Y-104739574D01*
X67455355Y-104739574D01*
X67555924Y-104950000D01*
X68730000Y-104950000D01*
X68730000Y-103776021D01*
X68519574Y-103675357D01*
X68513684Y-103676527D01*
X68260604Y-103753913D01*
X68027484Y-103879185D01*
X67823283Y-104047530D01*
X67655848Y-104252478D01*
X67531614Y-104486153D01*
X67455355Y-104739574D01*
X66644308Y-104739574D01*
X68133882Y-103250000D01*
X105997581Y-103250000D01*
X106007235Y-103348017D01*
X106035825Y-103442267D01*
X106082254Y-103529129D01*
X106144736Y-103605264D01*
X106220871Y-103667746D01*
X106307733Y-103714175D01*
X106401983Y-103742765D01*
X106500000Y-103752419D01*
X108825000Y-103750000D01*
X108950000Y-103625000D01*
X108950000Y-101800000D01*
X106125000Y-101800000D01*
X106000000Y-101925000D01*
X105997581Y-103250000D01*
X68133882Y-103250000D01*
X72908883Y-98475000D01*
X80641117Y-98475000D01*
X77791118Y-101325000D01*
X74697793Y-101325000D01*
X74623717Y-101250924D01*
X74476310Y-101152430D01*
X74312520Y-101084586D01*
X74138642Y-101050000D01*
X73961358Y-101050000D01*
X73787480Y-101084586D01*
X73623690Y-101152430D01*
X73476283Y-101250924D01*
X73350924Y-101376283D01*
X73252430Y-101523690D01*
X73184586Y-101687480D01*
X73150000Y-101861358D01*
X73150000Y-102038642D01*
X73184586Y-102212520D01*
X73252430Y-102376310D01*
X73350924Y-102523717D01*
X73476283Y-102649076D01*
X73623690Y-102747570D01*
X73787480Y-102815414D01*
X73961358Y-102850000D01*
X74138642Y-102850000D01*
X74312520Y-102815414D01*
X74476310Y-102747570D01*
X74623717Y-102649076D01*
X74697793Y-102575000D01*
X78019306Y-102575000D01*
X78050000Y-102578023D01*
X78080694Y-102575000D01*
X78080704Y-102575000D01*
X78172521Y-102565957D01*
X78290334Y-102530219D01*
X78398911Y-102472183D01*
X78494080Y-102394080D01*
X78513658Y-102370224D01*
X80633882Y-100250000D01*
X105997581Y-100250000D01*
X106000000Y-101575000D01*
X106125000Y-101700000D01*
X108950000Y-101700000D01*
X108950000Y-99875000D01*
X108825000Y-99750000D01*
X106500000Y-99747581D01*
X106401983Y-99757235D01*
X106307733Y-99785825D01*
X106220871Y-99832254D01*
X106144736Y-99894736D01*
X106082254Y-99970871D01*
X106035825Y-100057733D01*
X106007235Y-100151983D01*
X105997581Y-100250000D01*
X80633882Y-100250000D01*
X83633882Y-97250000D01*
X105997581Y-97250000D01*
X106007235Y-97348017D01*
X106035825Y-97442267D01*
X106082254Y-97529129D01*
X106144736Y-97605264D01*
X106220871Y-97667746D01*
X106307733Y-97714175D01*
X106401983Y-97742765D01*
X106500000Y-97752419D01*
X108825000Y-97750000D01*
X108950000Y-97625000D01*
X108950000Y-95800000D01*
X106125000Y-95800000D01*
X106000000Y-95925000D01*
X105997581Y-97250000D01*
X83633882Y-97250000D01*
X86633883Y-94250000D01*
X105997581Y-94250000D01*
X106000000Y-95575000D01*
X106125000Y-95700000D01*
X108950000Y-95700000D01*
X108950000Y-93875000D01*
X108825000Y-93750000D01*
X106500000Y-93747581D01*
X106401983Y-93757235D01*
X106307733Y-93785825D01*
X106220871Y-93832254D01*
X106144736Y-93894736D01*
X106082254Y-93970871D01*
X106035825Y-94057733D01*
X106007235Y-94151983D01*
X105997581Y-94250000D01*
X86633883Y-94250000D01*
X87558884Y-93325000D01*
X97949306Y-93325000D01*
X97980000Y-93328023D01*
X98010694Y-93325000D01*
X98010704Y-93325000D01*
X98102521Y-93315957D01*
X98220334Y-93280219D01*
X98328911Y-93222183D01*
X98424080Y-93144080D01*
X98443658Y-93120224D01*
X104847581Y-86716303D01*
X104847581Y-87870000D01*
X104857235Y-87968017D01*
X104885825Y-88062267D01*
X104932254Y-88149129D01*
X104994736Y-88225264D01*
X105070871Y-88287746D01*
X105157733Y-88334175D01*
X105251983Y-88362765D01*
X105350000Y-88372419D01*
X107050000Y-88372419D01*
X107148017Y-88362765D01*
X107242267Y-88334175D01*
X107329129Y-88287746D01*
X107405264Y-88225264D01*
X107467746Y-88149129D01*
X107514175Y-88062267D01*
X107542765Y-87968017D01*
X107552419Y-87870000D01*
X107552419Y-86170000D01*
X107542765Y-86071983D01*
X107514175Y-85977733D01*
X107467746Y-85890871D01*
X107405264Y-85814736D01*
X107329129Y-85752254D01*
X107242267Y-85705825D01*
X107148017Y-85677235D01*
X107050000Y-85667581D01*
X106852595Y-85667581D01*
X107060575Y-85528613D01*
X107248613Y-85340575D01*
X107396354Y-85119465D01*
X107498120Y-84873780D01*
X107550000Y-84612963D01*
X107550000Y-84347037D01*
X107498120Y-84086220D01*
X107396354Y-83840535D01*
X107248613Y-83619425D01*
X107060575Y-83431387D01*
X106839465Y-83283646D01*
X106661668Y-83210000D01*
X106839465Y-83136354D01*
X107060575Y-82988613D01*
X107248613Y-82800575D01*
X107396354Y-82579465D01*
X107498120Y-82333780D01*
X107550000Y-82072963D01*
X107550000Y-81807037D01*
X107498120Y-81546220D01*
X107396354Y-81300535D01*
X107248613Y-81079425D01*
X107060575Y-80891387D01*
X106839465Y-80743646D01*
X106661668Y-80670000D01*
X106839465Y-80596354D01*
X107060575Y-80448613D01*
X107248613Y-80260575D01*
X107396354Y-80039465D01*
X107498120Y-79793780D01*
X107550000Y-79532963D01*
X107550000Y-79267037D01*
X107498120Y-79006220D01*
X107396354Y-78760535D01*
X107248613Y-78539425D01*
X107060575Y-78351387D01*
X106839465Y-78203646D01*
X106661668Y-78130000D01*
X106839465Y-78056354D01*
X107060575Y-77908613D01*
X107248613Y-77720575D01*
X107396354Y-77499465D01*
X107498120Y-77253780D01*
X107550000Y-76992963D01*
X107550000Y-76727037D01*
X107498120Y-76466220D01*
X107396354Y-76220535D01*
X107248613Y-75999425D01*
X107060575Y-75811387D01*
X106839465Y-75663646D01*
X106661668Y-75590000D01*
X106839465Y-75516354D01*
X107060575Y-75368613D01*
X107248613Y-75180575D01*
X107396354Y-74959465D01*
X107498120Y-74713780D01*
X107550000Y-74452963D01*
X107550000Y-74187037D01*
X107498120Y-73926220D01*
X107396354Y-73680535D01*
X107248613Y-73459425D01*
X107060575Y-73271387D01*
X106839465Y-73123646D01*
X106653400Y-73046576D01*
X106713847Y-73028386D01*
X106947522Y-72904152D01*
X107152470Y-72736717D01*
X107320815Y-72532516D01*
X107446087Y-72299396D01*
X107523473Y-72046316D01*
X107524643Y-72040426D01*
X107423979Y-71830000D01*
X106250000Y-71830000D01*
X106250000Y-71850000D01*
X106150000Y-71850000D01*
X106150000Y-71830000D01*
X104976021Y-71830000D01*
X104875357Y-72040426D01*
X104876527Y-72046316D01*
X104953913Y-72299396D01*
X105079185Y-72532516D01*
X105247530Y-72736717D01*
X105452478Y-72904152D01*
X105686153Y-73028386D01*
X105746600Y-73046576D01*
X105560535Y-73123646D01*
X105339425Y-73271387D01*
X105151387Y-73459425D01*
X105003646Y-73680535D01*
X104901880Y-73926220D01*
X104850000Y-74187037D01*
X104850000Y-74452963D01*
X104901880Y-74713780D01*
X104907872Y-74728245D01*
X89361158Y-90274960D01*
X86585094Y-90274960D01*
X86554400Y-90271937D01*
X86523706Y-90274960D01*
X86523696Y-90274960D01*
X86431879Y-90284003D01*
X86314066Y-90319741D01*
X86205489Y-90377777D01*
X86110320Y-90455880D01*
X86090747Y-90479730D01*
X84645478Y-91925000D01*
X62742346Y-91925000D01*
X62838120Y-91693780D01*
X62890000Y-91432963D01*
X62890000Y-91167037D01*
X62838120Y-90906220D01*
X62736354Y-90660535D01*
X62588613Y-90439425D01*
X62400575Y-90251387D01*
X62179465Y-90103646D01*
X61993400Y-90026576D01*
X62053847Y-90008386D01*
X62287522Y-89884152D01*
X62492470Y-89716717D01*
X62660815Y-89512516D01*
X62786087Y-89279396D01*
X62863473Y-89026316D01*
X62864643Y-89020426D01*
X62763979Y-88810000D01*
X61590000Y-88810000D01*
X61590000Y-88830000D01*
X61490000Y-88830000D01*
X61490000Y-88810000D01*
X61470000Y-88810000D01*
X61470000Y-88710000D01*
X61490000Y-88710000D01*
X61490000Y-88690000D01*
X61590000Y-88690000D01*
X61590000Y-88710000D01*
X62763979Y-88710000D01*
X62864643Y-88499574D01*
X62863473Y-88493684D01*
X62786087Y-88240604D01*
X62769641Y-88209999D01*
X72444307Y-88209999D01*
X72475001Y-88213022D01*
X72505695Y-88209999D01*
X72505705Y-88209999D01*
X72597522Y-88200956D01*
X72715335Y-88165218D01*
X72823912Y-88107182D01*
X72919081Y-88029079D01*
X72938659Y-88005223D01*
X81193653Y-79750231D01*
X81193662Y-79750220D01*
X84593883Y-76350000D01*
X84792963Y-76350000D01*
X85053780Y-76298120D01*
X85299465Y-76196354D01*
X85520575Y-76048613D01*
X85708613Y-75860575D01*
X85847581Y-75652595D01*
X85847581Y-75850000D01*
X85857235Y-75948017D01*
X85885825Y-76042267D01*
X85932254Y-76129129D01*
X85994736Y-76205264D01*
X86070871Y-76267746D01*
X86157733Y-76314175D01*
X86251983Y-76342765D01*
X86350000Y-76352419D01*
X88050000Y-76352419D01*
X88148017Y-76342765D01*
X88242267Y-76314175D01*
X88329129Y-76267746D01*
X88405264Y-76205264D01*
X88467746Y-76129129D01*
X88514175Y-76042267D01*
X88542765Y-75948017D01*
X88552419Y-75850000D01*
X88552419Y-74150000D01*
X88542765Y-74051983D01*
X88514175Y-73957733D01*
X88467746Y-73870871D01*
X88405264Y-73794736D01*
X88329129Y-73732254D01*
X88242267Y-73685825D01*
X88148017Y-73657235D01*
X88050000Y-73647581D01*
X86350000Y-73647581D01*
X86251983Y-73657235D01*
X86157733Y-73685825D01*
X86070871Y-73732254D01*
X85994736Y-73794736D01*
X85932254Y-73870871D01*
X85885825Y-73957733D01*
X85857235Y-74051983D01*
X85847581Y-74150000D01*
X85847581Y-74347405D01*
X85708613Y-74139425D01*
X85520575Y-73951387D01*
X85299465Y-73803646D01*
X85053780Y-73701880D01*
X84792963Y-73650000D01*
X84527037Y-73650000D01*
X84266220Y-73701880D01*
X84020535Y-73803646D01*
X83799425Y-73951387D01*
X83611387Y-74139425D01*
X83463646Y-74360535D01*
X83390000Y-74538332D01*
X83316354Y-74360535D01*
X83168613Y-74139425D01*
X82980575Y-73951387D01*
X82759465Y-73803646D01*
X82513780Y-73701880D01*
X82252963Y-73650000D01*
X81987037Y-73650000D01*
X81726220Y-73701880D01*
X81480535Y-73803646D01*
X81259425Y-73951387D01*
X81071387Y-74139425D01*
X80923646Y-74360535D01*
X80850000Y-74538332D01*
X80776354Y-74360535D01*
X80628613Y-74139425D01*
X80440575Y-73951387D01*
X80219465Y-73803646D01*
X79973780Y-73701880D01*
X79712963Y-73650000D01*
X79447037Y-73650000D01*
X79186220Y-73701880D01*
X78940535Y-73803646D01*
X78719425Y-73951387D01*
X78531387Y-74139425D01*
X78383646Y-74360535D01*
X78310000Y-74538332D01*
X78236354Y-74360535D01*
X78088613Y-74139425D01*
X77900575Y-73951387D01*
X77679465Y-73803646D01*
X77433780Y-73701880D01*
X77172963Y-73650000D01*
X76907037Y-73650000D01*
X76646220Y-73701880D01*
X76400535Y-73803646D01*
X76179425Y-73951387D01*
X75991387Y-74139425D01*
X75843646Y-74360535D01*
X75770000Y-74538332D01*
X75696354Y-74360535D01*
X75548613Y-74139425D01*
X75360575Y-73951387D01*
X75139465Y-73803646D01*
X74893780Y-73701880D01*
X74632963Y-73650000D01*
X74367037Y-73650000D01*
X74106220Y-73701880D01*
X73860535Y-73803646D01*
X73639425Y-73951387D01*
X73451387Y-74139425D01*
X73303646Y-74360535D01*
X73226576Y-74546600D01*
X73208386Y-74486153D01*
X73084152Y-74252478D01*
X72916717Y-74047530D01*
X72712516Y-73879185D01*
X72479396Y-73753913D01*
X72226316Y-73676527D01*
X72220426Y-73675357D01*
X72010000Y-73776021D01*
X72010000Y-74950000D01*
X72030000Y-74950000D01*
X72030000Y-75050000D01*
X72010000Y-75050000D01*
X72010000Y-76223979D01*
X72220426Y-76324643D01*
X72226316Y-76323473D01*
X72479396Y-76246087D01*
X72712516Y-76120815D01*
X72916717Y-75952470D01*
X73084152Y-75747522D01*
X73208386Y-75513847D01*
X73226576Y-75453400D01*
X73303646Y-75639465D01*
X73451387Y-75860575D01*
X73639425Y-76048613D01*
X73860535Y-76196354D01*
X74106220Y-76298120D01*
X74367037Y-76350000D01*
X74632963Y-76350000D01*
X74893780Y-76298120D01*
X75139465Y-76196354D01*
X75360575Y-76048613D01*
X75548613Y-75860575D01*
X75696354Y-75639465D01*
X75770000Y-75461668D01*
X75843646Y-75639465D01*
X75872888Y-75683229D01*
X73581118Y-77975000D01*
X62742346Y-77975000D01*
X62736354Y-77960535D01*
X62588613Y-77739425D01*
X62400575Y-77551387D01*
X62179465Y-77403646D01*
X62001668Y-77330000D01*
X62179465Y-77256354D01*
X62400575Y-77108613D01*
X62588613Y-76920575D01*
X62736354Y-76699465D01*
X62742346Y-76685000D01*
X63959306Y-76685000D01*
X63990000Y-76688023D01*
X64020694Y-76685000D01*
X64020704Y-76685000D01*
X64112521Y-76675957D01*
X64230334Y-76640219D01*
X64338911Y-76582183D01*
X64434080Y-76504080D01*
X64453658Y-76480224D01*
X65673456Y-75260426D01*
X68095355Y-75260426D01*
X68171614Y-75513847D01*
X68295848Y-75747522D01*
X68463283Y-75952470D01*
X68667484Y-76120815D01*
X68900604Y-76246087D01*
X69153684Y-76323473D01*
X69159574Y-76324643D01*
X69370000Y-76223979D01*
X69370000Y-75050000D01*
X69470000Y-75050000D01*
X69470000Y-76223979D01*
X69680426Y-76324643D01*
X69686316Y-76323473D01*
X69939396Y-76246087D01*
X70172516Y-76120815D01*
X70376717Y-75952470D01*
X70544152Y-75747522D01*
X70668386Y-75513847D01*
X70690000Y-75442020D01*
X70711614Y-75513847D01*
X70835848Y-75747522D01*
X71003283Y-75952470D01*
X71207484Y-76120815D01*
X71440604Y-76246087D01*
X71693684Y-76323473D01*
X71699574Y-76324643D01*
X71910000Y-76223979D01*
X71910000Y-75050000D01*
X70735924Y-75050000D01*
X70690000Y-75146089D01*
X70644076Y-75050000D01*
X69470000Y-75050000D01*
X69370000Y-75050000D01*
X68195924Y-75050000D01*
X68095355Y-75260426D01*
X65673456Y-75260426D01*
X66194308Y-74739574D01*
X68095355Y-74739574D01*
X68195924Y-74950000D01*
X69370000Y-74950000D01*
X69370000Y-73776021D01*
X69470000Y-73776021D01*
X69470000Y-74950000D01*
X70644076Y-74950000D01*
X70690000Y-74853911D01*
X70735924Y-74950000D01*
X71910000Y-74950000D01*
X71910000Y-73776021D01*
X71699574Y-73675357D01*
X71693684Y-73676527D01*
X71440604Y-73753913D01*
X71207484Y-73879185D01*
X71003283Y-74047530D01*
X70835848Y-74252478D01*
X70711614Y-74486153D01*
X70690000Y-74557980D01*
X70668386Y-74486153D01*
X70544152Y-74252478D01*
X70376717Y-74047530D01*
X70172516Y-73879185D01*
X69939396Y-73753913D01*
X69686316Y-73676527D01*
X69680426Y-73675357D01*
X69470000Y-73776021D01*
X69370000Y-73776021D01*
X69159574Y-73675357D01*
X69153684Y-73676527D01*
X68900604Y-73753913D01*
X68667484Y-73879185D01*
X68463283Y-74047530D01*
X68295848Y-74252478D01*
X68171614Y-74486153D01*
X68095355Y-74739574D01*
X66194308Y-74739574D01*
X68058883Y-72875000D01*
X77919306Y-72875000D01*
X77950000Y-72878023D01*
X77980694Y-72875000D01*
X77980704Y-72875000D01*
X78072521Y-72865957D01*
X78190334Y-72830219D01*
X78298911Y-72772183D01*
X78394080Y-72694080D01*
X78413658Y-72670224D01*
X80000230Y-71083653D01*
X80024080Y-71064080D01*
X80084696Y-70990219D01*
X80102182Y-70968913D01*
X80160218Y-70860336D01*
X80162116Y-70854080D01*
X80195957Y-70742521D01*
X80205000Y-70650704D01*
X80205000Y-70650695D01*
X80208023Y-70620001D01*
X80205000Y-70589307D01*
X80205000Y-69702346D01*
X80219465Y-69696354D01*
X80440575Y-69548613D01*
X80628613Y-69360575D01*
X80776354Y-69139465D01*
X80850000Y-68961668D01*
X80923646Y-69139465D01*
X81071387Y-69360575D01*
X81259425Y-69548613D01*
X81480535Y-69696354D01*
X81726220Y-69798120D01*
X81987037Y-69850000D01*
X82252963Y-69850000D01*
X82513780Y-69798120D01*
X82759465Y-69696354D01*
X82980575Y-69548613D01*
X83168613Y-69360575D01*
X83316354Y-69139465D01*
X83390000Y-68961668D01*
X83463646Y-69139465D01*
X83611387Y-69360575D01*
X83799425Y-69548613D01*
X84020535Y-69696354D01*
X84266220Y-69798120D01*
X84527037Y-69850000D01*
X84792963Y-69850000D01*
X85053780Y-69798120D01*
X85299465Y-69696354D01*
X85520575Y-69548613D01*
X85708613Y-69360575D01*
X85847581Y-69152595D01*
X85847581Y-69350000D01*
X85857235Y-69448017D01*
X85885825Y-69542267D01*
X85932254Y-69629129D01*
X85994736Y-69705264D01*
X86070871Y-69767746D01*
X86157733Y-69814175D01*
X86251983Y-69842765D01*
X86350000Y-69852419D01*
X88050000Y-69852419D01*
X88148017Y-69842765D01*
X88242267Y-69814175D01*
X88329129Y-69767746D01*
X88405264Y-69705264D01*
X88467746Y-69629129D01*
X88514175Y-69542267D01*
X88526867Y-69500426D01*
X104875357Y-69500426D01*
X104876527Y-69506316D01*
X104953913Y-69759396D01*
X105079185Y-69992516D01*
X105247530Y-70196717D01*
X105452478Y-70364152D01*
X105686153Y-70488386D01*
X105757980Y-70510000D01*
X105686153Y-70531614D01*
X105452478Y-70655848D01*
X105247530Y-70823283D01*
X105079185Y-71027484D01*
X104953913Y-71260604D01*
X104876527Y-71513684D01*
X104875357Y-71519574D01*
X104976021Y-71730000D01*
X106150000Y-71730000D01*
X106150000Y-70555924D01*
X106053911Y-70510000D01*
X106150000Y-70464076D01*
X106150000Y-69290000D01*
X106250000Y-69290000D01*
X106250000Y-70464076D01*
X106346089Y-70510000D01*
X106250000Y-70555924D01*
X106250000Y-71730000D01*
X107423979Y-71730000D01*
X107524643Y-71519574D01*
X107523473Y-71513684D01*
X107446087Y-71260604D01*
X107320815Y-71027484D01*
X107152470Y-70823283D01*
X106947522Y-70655848D01*
X106713847Y-70531614D01*
X106642020Y-70510000D01*
X106713847Y-70488386D01*
X106947522Y-70364152D01*
X107152470Y-70196717D01*
X107320815Y-69992516D01*
X107446087Y-69759396D01*
X107523473Y-69506316D01*
X107524643Y-69500426D01*
X107423979Y-69290000D01*
X106250000Y-69290000D01*
X106150000Y-69290000D01*
X104976021Y-69290000D01*
X104875357Y-69500426D01*
X88526867Y-69500426D01*
X88542765Y-69448017D01*
X88552419Y-69350000D01*
X88552419Y-68979574D01*
X104875357Y-68979574D01*
X104976021Y-69190000D01*
X106150000Y-69190000D01*
X106150000Y-68015924D01*
X106250000Y-68015924D01*
X106250000Y-69190000D01*
X107423979Y-69190000D01*
X107524643Y-68979574D01*
X107523473Y-68973684D01*
X107446087Y-68720604D01*
X107320815Y-68487484D01*
X107152470Y-68283283D01*
X106947522Y-68115848D01*
X106713847Y-67991614D01*
X106460426Y-67915355D01*
X106250000Y-68015924D01*
X106150000Y-68015924D01*
X105939574Y-67915355D01*
X105686153Y-67991614D01*
X105452478Y-68115848D01*
X105247530Y-68283283D01*
X105079185Y-68487484D01*
X104953913Y-68720604D01*
X104876527Y-68973684D01*
X104875357Y-68979574D01*
X88552419Y-68979574D01*
X88552419Y-67650000D01*
X88542765Y-67551983D01*
X88514175Y-67457733D01*
X88467746Y-67370871D01*
X88405264Y-67294736D01*
X88329129Y-67232254D01*
X88242267Y-67185825D01*
X88148017Y-67157235D01*
X88050000Y-67147581D01*
X86350000Y-67147581D01*
X86251983Y-67157235D01*
X86157733Y-67185825D01*
X86070871Y-67232254D01*
X85994736Y-67294736D01*
X85932254Y-67370871D01*
X85885825Y-67457733D01*
X85857235Y-67551983D01*
X85847581Y-67650000D01*
X85847581Y-67847405D01*
X85708613Y-67639425D01*
X85520575Y-67451387D01*
X85299465Y-67303646D01*
X85053780Y-67201880D01*
X84792963Y-67150000D01*
X84527037Y-67150000D01*
X84266220Y-67201880D01*
X84020535Y-67303646D01*
X83799425Y-67451387D01*
X83611387Y-67639425D01*
X83463646Y-67860535D01*
X83390000Y-68038332D01*
X83316354Y-67860535D01*
X83168613Y-67639425D01*
X82980575Y-67451387D01*
X82759465Y-67303646D01*
X82513780Y-67201880D01*
X82252963Y-67150000D01*
X81987037Y-67150000D01*
X81726220Y-67201880D01*
X81480535Y-67303646D01*
X81259425Y-67451387D01*
X81071387Y-67639425D01*
X80923646Y-67860535D01*
X80850000Y-68038332D01*
X80776354Y-67860535D01*
X80628613Y-67639425D01*
X80440575Y-67451387D01*
X80219465Y-67303646D01*
X79973780Y-67201880D01*
X79712963Y-67150000D01*
X79447037Y-67150000D01*
X79186220Y-67201880D01*
X78940535Y-67303646D01*
X78719425Y-67451387D01*
X78531387Y-67639425D01*
X78383646Y-67860535D01*
X78310000Y-68038332D01*
X78236354Y-67860535D01*
X78088613Y-67639425D01*
X77900575Y-67451387D01*
X77679465Y-67303646D01*
X77433780Y-67201880D01*
X77172963Y-67150000D01*
X76907037Y-67150000D01*
X76646220Y-67201880D01*
X76400535Y-67303646D01*
X76179425Y-67451387D01*
X75991387Y-67639425D01*
X75843646Y-67860535D01*
X75766576Y-68046600D01*
X75748386Y-67986153D01*
X75624152Y-67752478D01*
X75456717Y-67547530D01*
X75252516Y-67379185D01*
X75019396Y-67253913D01*
X74766316Y-67176527D01*
X74760426Y-67175357D01*
X74550000Y-67276021D01*
X74550000Y-68450000D01*
X74570000Y-68450000D01*
X74570000Y-68550000D01*
X74550000Y-68550000D01*
X74550000Y-69723979D01*
X74760426Y-69824643D01*
X74766316Y-69823473D01*
X75019396Y-69746087D01*
X75252516Y-69620815D01*
X75456717Y-69452470D01*
X75624152Y-69247522D01*
X75748386Y-69013847D01*
X75766576Y-68953400D01*
X75843646Y-69139465D01*
X75991387Y-69360575D01*
X76179425Y-69548613D01*
X76400535Y-69696354D01*
X76415000Y-69702346D01*
X76415000Y-70151117D01*
X75391128Y-71174990D01*
X67644301Y-71174990D01*
X67613600Y-71171966D01*
X67582898Y-71174990D01*
X67582896Y-71174990D01*
X67491079Y-71184033D01*
X67373266Y-71219771D01*
X67264689Y-71277807D01*
X67169520Y-71355910D01*
X67149947Y-71379760D01*
X64354708Y-74175000D01*
X62725974Y-74175000D01*
X62736354Y-74159465D01*
X62838120Y-73913780D01*
X62890000Y-73652963D01*
X62890000Y-73387037D01*
X62838120Y-73126220D01*
X62736354Y-72880535D01*
X62588613Y-72659425D01*
X62400575Y-72471387D01*
X62179465Y-72323646D01*
X61993400Y-72246576D01*
X62053847Y-72228386D01*
X62287522Y-72104152D01*
X62492470Y-71936717D01*
X62660815Y-71732516D01*
X62786087Y-71499396D01*
X62863473Y-71246316D01*
X62864643Y-71240426D01*
X62763979Y-71030000D01*
X61590000Y-71030000D01*
X61590000Y-71050000D01*
X61490000Y-71050000D01*
X61490000Y-71030000D01*
X61470000Y-71030000D01*
X61470000Y-70930000D01*
X61490000Y-70930000D01*
X61490000Y-69755924D01*
X61590000Y-69755924D01*
X61590000Y-70930000D01*
X62763979Y-70930000D01*
X62864643Y-70719574D01*
X62863473Y-70713684D01*
X62786087Y-70460604D01*
X62660815Y-70227484D01*
X62492470Y-70023283D01*
X62287522Y-69855848D01*
X62053847Y-69731614D01*
X61800426Y-69655355D01*
X61590000Y-69755924D01*
X61490000Y-69755924D01*
X61279574Y-69655355D01*
X61026153Y-69731614D01*
X60792478Y-69855848D01*
X60587530Y-70023283D01*
X60419185Y-70227484D01*
X60293913Y-70460604D01*
X60273602Y-70527028D01*
X60196354Y-70340535D01*
X60048613Y-70119425D01*
X59860575Y-69931387D01*
X59639465Y-69783646D01*
X59393780Y-69681880D01*
X59132963Y-69630000D01*
X58867037Y-69630000D01*
X58606220Y-69681880D01*
X58360535Y-69783646D01*
X58139425Y-69931387D01*
X57951387Y-70119425D01*
X57803646Y-70340535D01*
X57701880Y-70586220D01*
X57650000Y-70847037D01*
X57200000Y-70847037D01*
X57200000Y-68760426D01*
X73175355Y-68760426D01*
X73251614Y-69013847D01*
X73375848Y-69247522D01*
X73543283Y-69452470D01*
X73747484Y-69620815D01*
X73980604Y-69746087D01*
X74233684Y-69823473D01*
X74239574Y-69824643D01*
X74450000Y-69723979D01*
X74450000Y-68550000D01*
X73275924Y-68550000D01*
X73175355Y-68760426D01*
X57200000Y-68760426D01*
X57200000Y-68239574D01*
X73175355Y-68239574D01*
X73275924Y-68450000D01*
X74450000Y-68450000D01*
X74450000Y-67276021D01*
X74239574Y-67175357D01*
X74233684Y-67176527D01*
X73980604Y-67253913D01*
X73747484Y-67379185D01*
X73543283Y-67547530D01*
X73375848Y-67752478D01*
X73251614Y-67986153D01*
X73175355Y-68239574D01*
X57200000Y-68239574D01*
X57200000Y-65219698D01*
X57203268Y-65203268D01*
X57219698Y-65200000D01*
X110780302Y-65200000D01*
X110796732Y-65203268D01*
G36*
X90683646Y-106839465D02*
G01*
X90831387Y-107060575D01*
X91019425Y-107248613D01*
X91180001Y-107355906D01*
X91180000Y-112630051D01*
X87810051Y-116000000D01*
X62695906Y-116000000D01*
X62588613Y-115839425D01*
X62400575Y-115651387D01*
X62179465Y-115503646D01*
X62001668Y-115430000D01*
X62179465Y-115356354D01*
X62400575Y-115208613D01*
X62588613Y-115020575D01*
X62695906Y-114860000D01*
X86205613Y-114860000D01*
X86240000Y-114863387D01*
X86274387Y-114860000D01*
X86274390Y-114860000D01*
X86377224Y-114849872D01*
X86509175Y-114809845D01*
X86630781Y-114744845D01*
X86737370Y-114657370D01*
X86759296Y-114630653D01*
X89810663Y-111579287D01*
X89837369Y-111557370D01*
X89859287Y-111530663D01*
X89859292Y-111530658D01*
X89924845Y-111450782D01*
X89989845Y-111329175D01*
X90021076Y-111226220D01*
X90029872Y-111197224D01*
X90040000Y-111094390D01*
X90040000Y-111094388D01*
X90043387Y-111060001D01*
X90040000Y-111025614D01*
X90040000Y-107355906D01*
X90200575Y-107248613D01*
X90388613Y-107060575D01*
X90536354Y-106839465D01*
X90610000Y-106661668D01*
X90683646Y-106839465D01*
G37*
X90683646Y-106839465D02*
X90831387Y-107060575D01*
X91019425Y-107248613D01*
X91180001Y-107355906D01*
X91180000Y-112630051D01*
X87810051Y-116000000D01*
X62695906Y-116000000D01*
X62588613Y-115839425D01*
X62400575Y-115651387D01*
X62179465Y-115503646D01*
X62001668Y-115430000D01*
X62179465Y-115356354D01*
X62400575Y-115208613D01*
X62588613Y-115020575D01*
X62695906Y-114860000D01*
X86205613Y-114860000D01*
X86240000Y-114863387D01*
X86274387Y-114860000D01*
X86274390Y-114860000D01*
X86377224Y-114849872D01*
X86509175Y-114809845D01*
X86630781Y-114744845D01*
X86737370Y-114657370D01*
X86759296Y-114630653D01*
X89810663Y-111579287D01*
X89837369Y-111557370D01*
X89859287Y-111530663D01*
X89859292Y-111530658D01*
X89924845Y-111450782D01*
X89989845Y-111329175D01*
X90021076Y-111226220D01*
X90029872Y-111197224D01*
X90040000Y-111094390D01*
X90040000Y-111094388D01*
X90043387Y-111060001D01*
X90040000Y-111025614D01*
X90040000Y-107355906D01*
X90200575Y-107248613D01*
X90388613Y-107060575D01*
X90536354Y-106839465D01*
X90610000Y-106661668D01*
X90683646Y-106839465D01*
G36*
X80881908Y-96324980D02*
G01*
X72307901Y-96324980D01*
X72277200Y-96321956D01*
X72246498Y-96324980D01*
X72246496Y-96324980D01*
X72154679Y-96334023D01*
X72036866Y-96369761D01*
X71928289Y-96427797D01*
X71833120Y-96505900D01*
X71813547Y-96529750D01*
X71318298Y-97025000D01*
X62732656Y-97025000D01*
X62736354Y-97019465D01*
X62838120Y-96773780D01*
X62890000Y-96512963D01*
X62890000Y-96247037D01*
X62838120Y-95986220D01*
X62736354Y-95740535D01*
X62588613Y-95519425D01*
X62400575Y-95331387D01*
X62179465Y-95183646D01*
X62001668Y-95110000D01*
X62179465Y-95036354D01*
X62400575Y-94888613D01*
X62588613Y-94700575D01*
X62736354Y-94479465D01*
X62838120Y-94233780D01*
X62890000Y-93972963D01*
X62890000Y-93707037D01*
X62838120Y-93446220D01*
X62736354Y-93200535D01*
X62719292Y-93175000D01*
X84031887Y-93175000D01*
X80881908Y-96324980D01*
G37*
X80881908Y-96324980D02*
X72307901Y-96324980D01*
X72277200Y-96321956D01*
X72246498Y-96324980D01*
X72246496Y-96324980D01*
X72154679Y-96334023D01*
X72036866Y-96369761D01*
X71928289Y-96427797D01*
X71833120Y-96505900D01*
X71813547Y-96529750D01*
X71318298Y-97025000D01*
X62732656Y-97025000D01*
X62736354Y-97019465D01*
X62838120Y-96773780D01*
X62890000Y-96512963D01*
X62890000Y-96247037D01*
X62838120Y-95986220D01*
X62736354Y-95740535D01*
X62588613Y-95519425D01*
X62400575Y-95331387D01*
X62179465Y-95183646D01*
X62001668Y-95110000D01*
X62179465Y-95036354D01*
X62400575Y-94888613D01*
X62588613Y-94700575D01*
X62736354Y-94479465D01*
X62838120Y-94233780D01*
X62890000Y-93972963D01*
X62890000Y-93707037D01*
X62838120Y-93446220D01*
X62736354Y-93200535D01*
X62719292Y-93175000D01*
X84031887Y-93175000D01*
X80881908Y-96324980D01*
G36*
X83463646Y-75639465D02*
G01*
X83492888Y-75683229D01*
X80309780Y-78866338D01*
X80309769Y-78866347D01*
X72216119Y-86959999D01*
X62669179Y-86959999D01*
X62736354Y-86859465D01*
X62838120Y-86613780D01*
X62890000Y-86352963D01*
X62890000Y-86087037D01*
X62838120Y-85826220D01*
X62736354Y-85580535D01*
X62588613Y-85359425D01*
X62400575Y-85171387D01*
X62179465Y-85023646D01*
X62001668Y-84950000D01*
X62179465Y-84876354D01*
X62400575Y-84728613D01*
X62588613Y-84540575D01*
X62736354Y-84319465D01*
X62838120Y-84073780D01*
X62890000Y-83812963D01*
X62890000Y-83547037D01*
X62838120Y-83286220D01*
X62736354Y-83040535D01*
X62588613Y-82819425D01*
X62400575Y-82631387D01*
X62179465Y-82483646D01*
X62001668Y-82410000D01*
X62179465Y-82336354D01*
X62400575Y-82188613D01*
X62588613Y-82000575D01*
X62736354Y-81779465D01*
X62742346Y-81765000D01*
X76349306Y-81765000D01*
X76380000Y-81768023D01*
X76410694Y-81765000D01*
X76410704Y-81765000D01*
X76502521Y-81755957D01*
X76620334Y-81720219D01*
X76728911Y-81662183D01*
X76824080Y-81584080D01*
X76843658Y-81560224D01*
X82053883Y-76350000D01*
X82252963Y-76350000D01*
X82513780Y-76298120D01*
X82759465Y-76196354D01*
X82980575Y-76048613D01*
X83168613Y-75860575D01*
X83316354Y-75639465D01*
X83390000Y-75461668D01*
X83463646Y-75639465D01*
G37*
X83463646Y-75639465D02*
X83492888Y-75683229D01*
X80309780Y-78866338D01*
X80309769Y-78866347D01*
X72216119Y-86959999D01*
X62669179Y-86959999D01*
X62736354Y-86859465D01*
X62838120Y-86613780D01*
X62890000Y-86352963D01*
X62890000Y-86087037D01*
X62838120Y-85826220D01*
X62736354Y-85580535D01*
X62588613Y-85359425D01*
X62400575Y-85171387D01*
X62179465Y-85023646D01*
X62001668Y-84950000D01*
X62179465Y-84876354D01*
X62400575Y-84728613D01*
X62588613Y-84540575D01*
X62736354Y-84319465D01*
X62838120Y-84073780D01*
X62890000Y-83812963D01*
X62890000Y-83547037D01*
X62838120Y-83286220D01*
X62736354Y-83040535D01*
X62588613Y-82819425D01*
X62400575Y-82631387D01*
X62179465Y-82483646D01*
X62001668Y-82410000D01*
X62179465Y-82336354D01*
X62400575Y-82188613D01*
X62588613Y-82000575D01*
X62736354Y-81779465D01*
X62742346Y-81765000D01*
X76349306Y-81765000D01*
X76380000Y-81768023D01*
X76410694Y-81765000D01*
X76410704Y-81765000D01*
X76502521Y-81755957D01*
X76620334Y-81720219D01*
X76728911Y-81662183D01*
X76824080Y-81584080D01*
X76843658Y-81560224D01*
X82053883Y-76350000D01*
X82252963Y-76350000D01*
X82513780Y-76298120D01*
X82759465Y-76196354D01*
X82980575Y-76048613D01*
X83168613Y-75860575D01*
X83316354Y-75639465D01*
X83390000Y-75461668D01*
X83463646Y-75639465D01*
%TD*%
M02*
