%TF.GenerationSoftware,KiCad,Pcbnew,5.1.6-1.fc32*%
%TF.CreationDate,2020-08-31T12:32:43+02:00*%
%TF.ProjectId,pi-lora-board,70692d6c-6f72-4612-9d62-6f6172642e6b,rev?*%
%TF.SameCoordinates,Original*%
%TF.FileFunction,Soldermask,Top*%
%TF.FilePolarity,Negative*%
%FSLAX46Y46*%
G04 Gerber Fmt 4.6, Leading zero omitted, Abs format (unit mm)*
G04 Created by KiCad (PCBNEW 5.1.6-1.fc32) date 2020-08-31 12:32:43*
%MOMM*%
%LPD*%
G01*
G04 APERTURE LIST*
%ADD10O,1.800000X1.800000*%
%ADD11R,1.800000X1.800000*%
%ADD12R,1.900000X4.500000*%
%ADD13O,1.900000X4.100000*%
%ADD14O,4.100000X1.900000*%
%ADD15R,2.600000X1.880000*%
%ADD16R,5.100000X3.100000*%
%ADD17R,5.100000X2.600000*%
%ADD18C,2.800000*%
%ADD19R,1.700000X1.700000*%
%ADD20C,1.700000*%
%ADD21R,1.160000X1.160000*%
G04 APERTURE END LIST*
D10*
%TO.C,J9*%
X76420000Y-108600000D03*
X73880000Y-108600000D03*
X71340000Y-108600000D03*
D11*
X68800000Y-108600000D03*
%TD*%
D10*
%TO.C,J8*%
X69420000Y-75000000D03*
X71960000Y-75000000D03*
X74500000Y-75000000D03*
X77040000Y-75000000D03*
X79580000Y-75000000D03*
X82120000Y-75000000D03*
X84660000Y-75000000D03*
D11*
X87200000Y-75000000D03*
%TD*%
D10*
%TO.C,J7*%
X68780000Y-105000000D03*
X71320000Y-105000000D03*
X73860000Y-105000000D03*
D11*
X76400000Y-105000000D03*
%TD*%
D10*
%TO.C,J6*%
X106200000Y-69240000D03*
X106200000Y-71780000D03*
X106200000Y-74320000D03*
X106200000Y-76860000D03*
X106200000Y-79400000D03*
X106200000Y-81940000D03*
X106200000Y-84480000D03*
D11*
X106200000Y-87020000D03*
%TD*%
D10*
%TO.C,J5*%
X74500000Y-68500000D03*
X77040000Y-68500000D03*
X79580000Y-68500000D03*
X82120000Y-68500000D03*
X84660000Y-68500000D03*
D11*
X87200000Y-68500000D03*
%TD*%
D10*
%TO.C,J4*%
X86800000Y-106200000D03*
X89340000Y-106200000D03*
X91880000Y-106200000D03*
D11*
X94420000Y-106200000D03*
%TD*%
D12*
%TO.C,J1*%
X102000000Y-113000000D03*
D13*
X107800000Y-113000000D03*
D14*
X105000000Y-108200000D03*
%TD*%
D15*
%TO.C,U3*%
X68275000Y-98890000D03*
X85725000Y-98890000D03*
X68275000Y-96350000D03*
X85725000Y-96350000D03*
X68275000Y-93810000D03*
X85725000Y-93810000D03*
X68275000Y-91270000D03*
X85725000Y-91270000D03*
X68275000Y-88730000D03*
X85725000Y-88730000D03*
X68275000Y-86190000D03*
X85725000Y-86190000D03*
X68275000Y-83650000D03*
X85725000Y-83650000D03*
X68275000Y-81110000D03*
X85725000Y-81110000D03*
%TD*%
D16*
%TO.C,J3*%
X109000000Y-101750000D03*
X109000000Y-95750000D03*
D17*
X109000000Y-101750000D03*
X109000000Y-95750000D03*
D16*
X109000000Y-98750000D03*
%TD*%
D18*
%TO.C,REF\u002A\u002A*%
X108000000Y-124000000D03*
%TD*%
D19*
%TO.C,C1*%
X100000000Y-122750000D03*
D20*
X102000000Y-122750000D03*
%TD*%
D11*
%TO.C,J2*%
X61540000Y-119240000D03*
D10*
X59000000Y-119240000D03*
X61540000Y-116700000D03*
X59000000Y-116700000D03*
X61540000Y-114160000D03*
X59000000Y-114160000D03*
X61540000Y-111620000D03*
X59000000Y-111620000D03*
X61540000Y-109080000D03*
X59000000Y-109080000D03*
X61540000Y-106540000D03*
X59000000Y-106540000D03*
X61540000Y-104000000D03*
X59000000Y-104000000D03*
X61540000Y-101460000D03*
X59000000Y-101460000D03*
X61540000Y-98920000D03*
X59000000Y-98920000D03*
X61540000Y-96380000D03*
X59000000Y-96380000D03*
X61540000Y-93840000D03*
X59000000Y-93840000D03*
X61540000Y-91300000D03*
X59000000Y-91300000D03*
X61540000Y-88760000D03*
X59000000Y-88760000D03*
X61540000Y-86220000D03*
X59000000Y-86220000D03*
X61540000Y-83680000D03*
X59000000Y-83680000D03*
X61540000Y-81140000D03*
X59000000Y-81140000D03*
X61540000Y-78600000D03*
X59000000Y-78600000D03*
X61540000Y-76060000D03*
X59000000Y-76060000D03*
X61540000Y-73520000D03*
X59000000Y-73520000D03*
X61540000Y-70980000D03*
X59000000Y-70980000D03*
%TD*%
D21*
%TO.C,U1*%
X92580000Y-113420000D03*
X90290000Y-113420000D03*
X88000000Y-113420000D03*
X85710000Y-113420000D03*
X83420000Y-113420000D03*
X92580000Y-115710000D03*
X90290000Y-115710000D03*
X88000000Y-115710000D03*
X85710000Y-115710000D03*
X83420000Y-115710000D03*
X92580000Y-118000000D03*
X90290000Y-118000000D03*
X88000000Y-118000000D03*
X85710000Y-118000000D03*
X83420000Y-118000000D03*
X92580000Y-120290000D03*
X90290000Y-120290000D03*
X88000000Y-120290000D03*
X85710000Y-120290000D03*
X83420000Y-120290000D03*
X92580000Y-122580000D03*
X90290000Y-122580000D03*
X88000000Y-122580000D03*
X85710000Y-122580000D03*
X83420000Y-122580000D03*
%TD*%
%TO.C,U2*%
X76580000Y-122580000D03*
X76580000Y-120290000D03*
X76580000Y-118000000D03*
X76580000Y-115710000D03*
X76580000Y-113420000D03*
X74290000Y-122580000D03*
X74290000Y-120290000D03*
X74290000Y-118000000D03*
X74290000Y-115710000D03*
X74290000Y-113420000D03*
X72000000Y-122580000D03*
X72000000Y-120290000D03*
X72000000Y-118000000D03*
X72000000Y-115710000D03*
X72000000Y-113420000D03*
X69710000Y-122580000D03*
X69710000Y-120290000D03*
X69710000Y-118000000D03*
X69710000Y-115710000D03*
X69710000Y-113420000D03*
X67420000Y-122580000D03*
X67420000Y-120290000D03*
X67420000Y-118000000D03*
X67420000Y-115710000D03*
X67420000Y-113420000D03*
%TD*%
M02*
